<svg xmlns="http://www.w3.org/2000/svg" viewBox="0 0 85 85"><defs><style>.cls-1{fill:#fff;}</style></defs><title>Recurso 50</title><g id="Capa_2" data-name="Capa 2"><g id="Layer_1" data-name="Layer 1"><circle class="cls-1" cx="42.5" cy="42.5" r="42.5"/><path d="M37.37,24.87a3.42,3.42,0,0,0,3.5-3.45,3.11,3.11,0,0,0-1-2.34,3.53,3.53,0,0,0-2.5-.94,3.41,3.41,0,0,0-2.5,1,3.23,3.23,0,0,0-1,2.39,3.16,3.16,0,0,0,1,2.37A3.46,3.46,0,0,0,37.37,24.87Z"/><path d="M58.73,57.12l-4.59-13.4h1.35V41.56H52.23l-12.3-11.2H34.81V45.74h-.07V48.3H46.38L43.69,59.65l.86.2H40.93V49.52H27l-5.44,9.15,4.83.46a4.86,4.86,0,1,0,8.31,5H54.18a4.87,4.87,0,1,0,4.55-7Zm-8.41,2.73h-4l3.34-14.11H39.93V33.82l10,9.11v.79h.39Z"/></g></g></svg>