<svg xmlns="http://www.w3.org/2000/svg" viewBox="0 0 85 85"><defs><style>.cls-1{fill:#fff;}</style></defs><title>Recurso 47</title><g id="Capa_2" data-name="Capa 2"><g id="Layer_1" data-name="Layer 1"><circle class="cls-1" cx="42.5" cy="42.5" r="42.5"/><polygon points="50.92 54.47 35.05 54.47 35.05 54.45 32.49 54.45 32.49 54.49 32.48 54.47 28.6 58.11 28.6 47.13 30.9 46.95 29.46 28.55 22.62 28.55 21.18 46.95 23.48 47.13 23.48 68.45 28.6 68.45 28.6 61.02 28.89 61.34 32.49 57.96 32.49 68.45 35.05 68.45 35.05 63.19 36.76 68.34 39.19 67.54 36.88 60.59 49.09 60.59 46.79 67.54 49.21 68.34 50.92 63.19 50.92 68.45 53.48 68.45 53.48 54.47 50.92 54.47 50.92 54.47"/><rect x="45.53" y="45.8" width="5.76" height="2.56" transform="translate(-19.11 48.04) rotate(-45.02)"/><rect x="59.73" y="44.5" width="2.56" height="5.4" transform="translate(-15.51 56.94) rotate(-44.98)"/><path d="M54.65,44.46a4.07,4.07,0,0,0-3,1.19,3.93,3.93,0,0,0-1.2,2.88,3.79,3.79,0,0,0,1.2,2.83,4.39,4.39,0,0,0,6,0,4,4,0,0,0,1.19-2.93,3.72,3.72,0,0,0-1.19-2.81A4.22,4.22,0,0,0,54.65,44.46Z"/><path d="M26,23.27a3.42,3.42,0,0,0,2.5-1,3.14,3.14,0,0,0,1-2.36,3.27,3.27,0,0,0-1-2.4,3.4,3.4,0,0,0-2.5-1,3.48,3.48,0,0,0-2.5.94,3.11,3.11,0,0,0-1,2.34,3.36,3.36,0,0,0,1,2.45A3.4,3.4,0,0,0,26,23.27Z"/></g></g></svg>