<svg xmlns="http://www.w3.org/2000/svg" viewBox="0 0 85 85"><defs><style>.cls-1{fill:#fff;}</style></defs><title>Recurso 42</title><g id="Capa_2" data-name="Capa 2"><g id="Layer_1" data-name="Layer 1"><circle class="cls-1" cx="42.5" cy="42.5" r="42.5"/><path d="M61.4,28.47a3.47,3.47,0,0,0,2.5-1,3.2,3.2,0,0,0,1-2.37,3.26,3.26,0,0,0-1-2.39,3.38,3.38,0,0,0-2.5-1,3.55,3.55,0,0,0-2.51.94,3.11,3.11,0,0,0-1,2.34,3.33,3.33,0,0,0,1,2.45A3.42,3.42,0,0,0,61.4,28.47Z"/><polygon points="63.96 48.05 63.95 48.05 63.95 33.97 58.84 33.97 58.84 48.05 48.22 48.05 48.22 62.47 50.78 62.47 50.78 50.6 63.96 50.6 63.96 48.05"/><polygon points="75.83 42.64 73.5 41.58 68.06 53.41 55.45 50.71 55.45 62.47 58.01 62.47 58.01 53.87 68.07 56.02 73.65 63.25 75.68 61.69 70.28 54.7 75.83 42.64"/><polygon points="50.82 45.57 50.82 43.01 34.18 43.01 34.18 45.57 41.22 45.57 41.22 62.47 43.78 62.47 43.78 45.57 50.82 45.57"/><path d="M23.6,28.47a3.42,3.42,0,0,0,2.51-1,3.33,3.33,0,0,0,1-2.45,3.11,3.11,0,0,0-1-2.34,3.55,3.55,0,0,0-2.51-.94,3.38,3.38,0,0,0-2.5,1,3.26,3.26,0,0,0-1,2.39,3.2,3.2,0,0,0,1,2.37A3.47,3.47,0,0,0,23.6,28.47Z"/><polygon points="26.16 33.97 21.05 33.97 21.05 48.05 21.04 48.05 21.04 50.6 34.22 50.6 34.22 62.47 36.78 62.47 36.78 48.05 26.16 48.05 26.16 33.97"/><polygon points="11.5 41.58 9.17 42.64 14.72 54.7 9.32 61.69 11.35 63.25 16.93 56.02 26.99 53.87 26.99 62.47 29.55 62.47 29.55 50.71 16.94 53.41 11.5 41.58"/></g></g></svg>