<svg xmlns="http://www.w3.org/2000/svg" viewBox="0 0 85 85"><defs><style>.cls-1{fill:#fff;}</style></defs><title>Recurso 43</title><g id="Capa_2" data-name="Capa 2"><g id="Layer_1" data-name="Layer 1"><circle class="cls-1" cx="42.5" cy="42.5" r="42.5"/><path d="M42.5,35.15a3.29,3.29,0,0,0,2.42-1,3.23,3.23,0,0,0,1-2.38,3,3,0,0,0-1-2.26,3.38,3.38,0,0,0-2.42-.92,3.29,3.29,0,0,0-2.42,1,3.13,3.13,0,0,0-1,2.32,3,3,0,0,0,1,2.29A3.31,3.31,0,0,0,42.5,35.15Z"/><polygon points="52.84 50.98 45.06 52.36 45.06 44.03 48.77 50.65 58.87 45.22 57.69 43.04 49.74 47.31 45.06 38.97 45.06 38.91 45.02 38.91 44.91 38.72 44.56 38.91 40.44 38.91 40.09 38.72 39.98 38.91 39.94 38.91 39.94 38.97 35.26 47.31 27.31 43.04 26.14 45.22 36.23 50.65 39.94 44.03 39.94 52.36 32.16 50.98 31.73 53.42 36.2 54.21 36.58 56.37 42.5 55.32 48.42 56.37 48.8 54.21 53.27 53.42 52.84 50.98"/></g></g></svg>