<svg xmlns="http://www.w3.org/2000/svg" viewBox="0 0 85 85"><defs><style>.cls-1{fill:#fff;}</style></defs><title>Recurso 48</title><g id="Capa_2" data-name="Capa 2"><g id="Layer_1" data-name="Layer 1"><circle class="cls-1" cx="42.5" cy="42.5" r="42.5"/><polygon points="60.95 36.14 60.95 25.5 6.11 25.5 6.11 46.79 60.95 46.79 60.95 36.14"/><path d="M5,55.17H6.82a4.33,4.33,0,0,0,8.66,0h8.88a4.33,4.33,0,0,0,8.66,0h1.82V48.58H5Z"/><path d="M80,44.53,75.85,33.89H65.34V48.58H46.08v6.59h1.83a4.33,4.33,0,1,0,8.65,0h8.88a4.33,4.33,0,0,0,8.66,0H80Zm-8.16-2.27,2.3,2.27h-2.3Zm3.57,2.27L71.84,41H70.05v3.53H68.32V36.14h6.85l3.27,8.39Z"/><path d="M71,36.73a1.19,1.19,0,0,0-.88.35,1.15,1.15,0,0,0-.35.84,1.1,1.1,0,0,0,.35.82,1.18,1.18,0,0,0,.88.34,1.2,1.2,0,0,0,1.22-1.2,1.09,1.09,0,0,0-.35-.82A1.21,1.21,0,0,0,71,36.73Z"/></g></g></svg>