<svg xmlns="http://www.w3.org/2000/svg" viewBox="0 0 85 85"><defs><style>.cls-1{fill:#fff;}</style></defs><title>Recurso 45</title><g id="Capa_2" data-name="Capa 2"><g id="Layer_1" data-name="Layer 1"><circle class="cls-1" cx="42.5" cy="42.5" r="42.5"/><path d="M42.5,28.62a3.31,3.31,0,0,0,2.42-.94,3,3,0,0,0,1-2.29,3.14,3.14,0,0,0-1-2.32,3.29,3.29,0,0,0-2.42-1,3.37,3.37,0,0,0-2.42.91,3,3,0,0,0-1,2.27,3.21,3.21,0,0,0,1,2.37A3.29,3.29,0,0,0,42.5,28.62Z"/><path d="M60.29,12.33v6.21H55.2l-.3-.16-.09.16H30.19l-.09-.16-.3.16H24.71V12.33H21.05V25.59h3.66v-6.2h3.5l-.29.15,8.76,16.4h3.26V72.67h5.12V35.94h3.26l8.76-16.4-.29-.15h3.5v6.2H64V12.33ZM46.83,33.46H38.17L30.64,19.39H54.36Z"/></g></g></svg>