<svg xmlns="http://www.w3.org/2000/svg" viewBox="0 0 85 85"><defs><style>.cls-1{fill:#fff;}</style></defs><title>Recurso 44</title><g id="Capa_2" data-name="Capa 2"><g id="Layer_1" data-name="Layer 1"><circle class="cls-1" cx="42.5" cy="42.5" r="42.5"/><path d="M46.2,27.35A3.31,3.31,0,0,0,49.59,24a3,3,0,0,0-1-2.27,3.41,3.41,0,0,0-2.42-.91,3.26,3.26,0,0,0-2.43,1,3.16,3.16,0,0,0-1,2.32,3.09,3.09,0,0,0,1,2.29A3.32,3.32,0,0,0,46.2,27.35Z"/><polygon points="48.75 47.52 48.75 34.58 58.96 36.78 59.48 34.36 48.75 32.05 48.75 31.96 48.33 31.96 28.71 27.74 28.19 30.16 43.64 33.48 43.64 47.52 43.39 47.52 43.39 49.19 24.54 62.13 25.95 64.17 46.58 50 57.98 50 57.98 63.15 60.46 63.15 60.46 47.52 48.75 47.52"/></g></g></svg>