<svg xmlns="http://www.w3.org/2000/svg" viewBox="0 0 85 85"><defs><style>.cls-1{fill:#fff;}</style></defs><title>Recurso 28</title><g id="Capa_2" data-name="Capa 2"><g id="Layer_1" data-name="Layer 1"><circle class="cls-1" cx="42.5" cy="42.5" r="42.5"/><path d="M28.21,25.55a3.29,3.29,0,0,0,2.42-1,3.23,3.23,0,0,0,1-2.38,3,3,0,0,0-1-2.26A3.38,3.38,0,0,0,28.21,19a3.32,3.32,0,0,0-2.43,1,3.17,3.17,0,0,0-1,2.32,3.07,3.07,0,0,0,1,2.29A3.33,3.33,0,0,0,28.21,25.55Z"/><path d="M58.24,28.74a3.33,3.33,0,0,0,2.43-.94,3.07,3.07,0,0,0,1-2.29,3.17,3.17,0,0,0-1-2.32,3.32,3.32,0,0,0-2.43-1,3.38,3.38,0,0,0-2.42.92,3,3,0,0,0-1,2.26,3.23,3.23,0,0,0,1,2.38A3.29,3.29,0,0,0,58.24,28.74Z"/><polygon points="61.12 35.19 73.86 32.33 73.32 29.92 55.84 33.83 55.39 33.83 55.39 33.94 55.31 33.95 43.6 37.32 31.56 30.96 30.97 30.83 30.97 30.63 30.09 30.63 11.68 26.47 11.14 28.89 25.32 32.06 25.32 47.13 25.41 47.13 27.77 54.97 29.59 65.25 32.37 64.76 30.53 54.4 28.96 49.14 34.18 55.42 39.16 65.63 41.7 64.39 36.64 54.03 30.95 47.13 30.97 47.13 30.97 33.46 42.56 39.58 43.09 38.58 43.48 39.93 55.39 36.51 55.39 48.95 55.5 48.95 50.53 54.92 45.71 64.71 48.28 65.97 52.84 56.62 57.17 51.41 55.97 55.43 54.25 65.09 57.07 65.59 58.74 56.17 60.89 48.99 60.76 48.95 61.12 48.95 61.12 35.19"/></g></g></svg>