<svg xmlns="http://www.w3.org/2000/svg" viewBox="0 0 85 85"><defs><style>.cls-1{fill:#fff;}</style></defs><title>Recurso 35</title><g id="Capa_2" data-name="Capa 2"><g id="Layer_1" data-name="Layer 1"><circle class="cls-1" cx="42.5" cy="42.5" r="42.5"/><path d="M47.82,23.25a3.42,3.42,0,0,0,2.5-1,3.17,3.17,0,0,0,1-2.37,3.28,3.28,0,0,0-1-2.39,3.4,3.4,0,0,0-2.5-1,3.47,3.47,0,0,0-2.5.94,3.08,3.08,0,0,0-1,2.34,3.28,3.28,0,0,0,1,2.44A3.35,3.35,0,0,0,47.82,23.25Z"/><path d="M54.33,38.06l-4-9.51-.48.2H45.24l-5.09,8-6.93,2V30.22h-.85V39l-.48.14.48,1.63V58.1h.85V41.41l8.57-2.53,3.47-5.42V49.1h.12l-3.15,8.25V68.47h2.55V57.82l3-7.92V68.47h2.55V49.1h0V47.65l2.2.38Zm-4,7.72V35.26l1.31,3.1Z"/><path d="M32.79,58.1a2.12,2.12,0,0,0-2.12,2.12v8.25h4.25V60.22A2.12,2.12,0,0,0,32.79,58.1Z"/></g></g></svg>