<svg xmlns="http://www.w3.org/2000/svg" viewBox="0 0 85 85"><defs><style>.cls-1{fill:#fff;}</style></defs><title>Recurso 37</title><g id="Capa_2" data-name="Capa 2"><g id="Layer_1" data-name="Layer 1"><circle class="cls-1" cx="42.5" cy="42.5" r="42.5"/><polygon points="41.77 43.94 38.85 43.94 38.61 45.76 46.38 45.76 46.14 43.94 43.22 43.94 43.22 32.97 47.21 32.97 46.14 25.38 43.22 25.38 43.22 24.49 41.77 24.49 41.77 25.38 38.85 25.38 37.79 32.97 41.77 32.97 41.77 43.94"/><polygon points="52.53 46.51 32.47 46.51 32.47 47.96 34.74 47.96 34.74 60.51 36.2 60.51 36.2 47.96 48.8 47.96 48.8 60.51 50.26 60.51 50.26 47.96 52.53 47.96 52.53 46.51"/></g></g></svg>