<svg xmlns="http://www.w3.org/2000/svg" viewBox="0 0 85 85"><defs><style>.cls-1{fill:#fff;}</style></defs><title>Recurso 32</title><g id="Capa_2" data-name="Capa 2"><g id="Layer_1" data-name="Layer 1"><circle class="cls-1" cx="42.5" cy="42.5" r="42.5"/><path d="M12.13,32.73a2.08,2.08,0,0,0,2.14-2.1,1.9,1.9,0,0,0-.61-1.43,2.15,2.15,0,0,0-1.53-.57,2.07,2.07,0,0,0-1.52.6A2,2,0,0,0,10,30.69a1.94,1.94,0,0,0,.61,1.45A2.1,2.1,0,0,0,12.13,32.73Z"/><path d="M38.07,36C47.76,48.61,59.82,64.28,75,64.28V62.72C60.58,62.72,49.28,48,39.3,35.06c-7.16-9.32-13.38-17.4-19.42-17.77V15.47H19V28.69l-.16-.14L12.46,36l.1.08h-2v8.59h0v1.56h0l8.06,12.25.39-.26V69.53h.86V57.66l.06,0-.06-.08V53.47h.29v-8.8h-.29V29.75l.16-.18-.16-.14V18.85a6.68,6.68,0,0,1,1.49.3V69.53h.86v-47c4.39,2.35,9.2,8.56,14.74,15.71,3.37,4.35,7,9.06,11,13.38V69.53h.86v-17C55.5,59.61,63.05,65.47,71.66,66.7v2.83h.86V66.81c.82.08,1.64.14,2.48.14v-.87c-15.34,0-27.54-15.74-37.35-28.38C31.89,30.26,26.9,23.83,22.23,21.55V19.48C26.94,21.54,32.17,28.34,38.07,36ZM19,56.23l-6.58-10h6.17v7.24H19ZM13.69,44.67V40.33L19,39.57v5.1ZM19,38l-5.33.76V37L19,30.76Z"/></g></g></svg>