<svg xmlns="http://www.w3.org/2000/svg" viewBox="0 0 85 85"><defs><style>.cls-1{fill:#fff;}</style></defs><title>Recurso 49</title><g id="Capa_2" data-name="Capa 2"><g id="Layer_1" data-name="Layer 1"><circle class="cls-1" cx="42.5" cy="42.5" r="42.5"/><path d="M60.54,39.08,51.7,26.44H26.14L20,39.08H7.5V52.81h8.74a5.75,5.75,0,0,0,11.5,0H55.62a5.76,5.76,0,0,0,11.51,0H77.5V39.08Zm-22,.12H24.25l4-11.24H38.5ZM48.6,38l1.27,1.25H48.6ZM52,39.2,48.6,35.9H45.69V39.2H39.8V28H50.62l8,11.24Z"/><path d="M47.15,28.92a2,2,0,0,0-1.43.56,1.87,1.87,0,0,0-.57,1.37,1.81,1.81,0,0,0,.57,1.35,2,2,0,0,0,1.43.56,1.95,1.95,0,0,0,2-2,1.78,1.78,0,0,0-.57-1.34A2,2,0,0,0,47.15,28.92Z"/></g></g></svg>