<svg xmlns="http://www.w3.org/2000/svg" viewBox="0 0 85 85"><defs><style>.cls-1{fill:#fff;}</style></defs><title>Recurso 39</title><g id="Capa_2" data-name="Capa 2"><g id="Layer_1" data-name="Layer 1"><circle class="cls-1" cx="42.5" cy="42.5" r="42.5"/><path d="M51,26.37a3.33,3.33,0,0,0,2.43-1,3.26,3.26,0,0,0,1-2.38,3,3,0,0,0-1-2.26A3.42,3.42,0,0,0,51,19.85a3.29,3.29,0,0,0-2.42,1,3.14,3.14,0,0,0-1,2.32,3,3,0,0,0,1,2.29A3.31,3.31,0,0,0,51,26.37Z"/><path d="M54.89,45.53,53.81,31.71,40.37,28.82a5.16,5.16,0,0,0-10.26.78h5l-.15.68,13.5,2.91v32h5V45.64Z"/></g></g></svg>