<svg xmlns="http://www.w3.org/2000/svg" viewBox="0 0 85 85"><defs><style>.cls-1{fill:#fff;}</style></defs><title>Recurso 31</title><g id="Capa_2" data-name="Capa 2"><g id="Layer_1" data-name="Layer 1"><circle class="cls-1" cx="42.5" cy="42.5" r="42.5"/><path d="M70.42,48.84H45.06V41.22H39.94v7.62H21V19.06a5.17,5.17,0,0,1,10.33,0v1.13h1.42V19.06a6.59,6.59,0,0,0-13.17,0V48.84h-5A20.55,20.55,0,0,0,31.43,69.05l-.94,3,1.35.42,1-3.24-.11,0a19.09,19.09,0,0,0,2.4.15H49.87a19.09,19.09,0,0,0,2.4-.15l-.11,0,1,3.24,1.35-.42-.94-3A20.55,20.55,0,0,0,70.42,48.84Z"/><path d="M29.49,22.71h5a2.52,2.52,0,0,0-5,0Z"/><path d="M42.5,37.46a3.29,3.29,0,0,0,2.42-1,3.23,3.23,0,0,0,1-2.38,3,3,0,0,0-1-2.27,3.41,3.41,0,0,0-2.42-.91,3.26,3.26,0,0,0-2.42,1,3.13,3.13,0,0,0-1,2.32,3,3,0,0,0,1,2.29A3.31,3.31,0,0,0,42.5,37.46Z"/></g></g></svg>