<svg xmlns="http://www.w3.org/2000/svg" viewBox="0 0 85 85"><defs><style>.cls-1{fill:#fff;}</style></defs><title>Recurso 25</title><g id="Capa_2" data-name="Capa 2"><g id="Layer_1" data-name="Layer 1"><circle class="cls-1" cx="42.5" cy="42.5" r="42.5"/><path d="M53,24.83a16,16,0,0,0-9.1-4.54v-.14H63.92a16.07,16.07,0,0,0-21.42,0h0L57.65,5A16.06,16.06,0,0,0,42.5,20.15h0A16.06,16.06,0,0,0,27.35,5L42.5,20.15h0a16.07,16.07,0,0,0-21.42,0H41.13v.14a16.05,16.05,0,0,0-13.78,15L41.13,21.52V80h2.74V21.52L57.65,35.3A16,16,0,0,0,53,24.83Z"/></g></g></svg>