<svg xmlns="http://www.w3.org/2000/svg" viewBox="0 0 85 85"><defs><style>.cls-1{fill:#fff;}</style></defs><title>Recurso 102</title><g id="Capa_2" data-name="Capa 2"><g id="Layer_1" data-name="Layer 1"><circle cx="42.5" cy="42.5" r="42.5"/><path class="cls-1" d="M56.6,50.6a9,9,0,0,0-2.15.27L52.14,44h2.93V42.53H51.85l.51-.51L38.92,28.75H33.81V45.36h-.63v1.42H35.5l1.14,3.41-2.49,2.52A8.84,8.84,0,0,0,28.4,50.6a8.94,8.94,0,1,0,8.9,9.65h1.87A1.53,1.53,0,0,0,40,61l.81,3.68.3-.06.13.5h2.3V63.66h-.33l-.31-1.39h1.95V60.85h-.15L46,56.4l4.18-3.06A8.93,8.93,0,1,0,56.6,50.6Zm-6-6.76,0,0,1.26,3.78-3.42.5.11-.38L39,44.26l0-.13V32.34ZM40.35,50.67l4.87-.7-2,6.68-1.38,1Zm-.3-1.38-.46-2.09,4.28,1.54Zm-.64,9.19a1.21,1.21,0,0,0-.24.35H37.3a8.88,8.88,0,0,0-2.14-5.13l2-2Zm-5.25-3.77a7.49,7.49,0,0,1,1.73,4.12H30.1ZM28.4,67.06a7.52,7.52,0,1,1,4.76-13.34l-4.32,4.36A1.56,1.56,0,0,0,28.4,58a1.52,1.52,0,0,0-1.52,1.53A1.33,1.33,0,0,0,27,60l-.25.26h.35a1.52,1.52,0,0,0,2.69,0h6.14A7.54,7.54,0,0,1,28.4,67.06Zm13.94-7.29-.13-.6.39-.28ZM48,49.57,52.32,49l.28.85-6,4.36Zm5.07,1.64,0,.1-.48.23ZM56.6,67.06a7.52,7.52,0,0,1-3-14.39l1.94,5.81a1.56,1.56,0,0,0-.43,1.06A1.53,1.53,0,1,0,56.84,58L54.9,52.22a7.32,7.32,0,0,1,1.7-.2,7.52,7.52,0,1,1,0,15Z"/><path class="cls-1" d="M36.37,23.25a3.38,3.38,0,0,0,2.5-1,3.31,3.31,0,0,0,1-2.44,3.07,3.07,0,0,0-1-2.34,3.5,3.5,0,0,0-2.5-.94,3.38,3.38,0,0,0-2.5,1,3.23,3.23,0,0,0-1,2.39,3.14,3.14,0,0,0,1,2.37A3.41,3.41,0,0,0,36.37,23.25Z"/></g></g></svg>