<svg xmlns="http://www.w3.org/2000/svg" viewBox="0 0 85 85"><defs><style>.cls-1{fill:#fff;}</style></defs><title>Recurso 78</title><g id="Capa_2" data-name="Capa 2"><g id="Layer_1" data-name="Layer 1"><circle cx="42.5" cy="42.5" r="42.5"/><path class="cls-1" d="M50.51,23.27a3.42,3.42,0,0,0,2.5-1,3.16,3.16,0,0,0,1-2.36,3.3,3.3,0,0,0-1-2.4,3.4,3.4,0,0,0-2.5-1,3.47,3.47,0,0,0-2.5.94,3.08,3.08,0,0,0-1,2.34,3.32,3.32,0,0,0,1,2.45A3.38,3.38,0,0,0,50.51,23.27Z"/><polygon class="cls-1" points="53.92 28.55 53.55 28.55 47.09 28.55 31.08 28.55 29.63 46.95 31.94 47.13 31.94 68.45 37.05 68.45 37.05 31.62 46.85 31.62 45.65 46.95 47.95 47.13 47.95 68.45 53.06 68.45 53.06 47.13 55.37 46.95 53.92 28.55"/><path class="cls-1" d="M34.49,23.27a3.41,3.41,0,0,0,2.5-1,3.14,3.14,0,0,0,1-2.36,3.27,3.27,0,0,0-1-2.4,3.38,3.38,0,0,0-2.5-1,3.5,3.5,0,0,0-2.5.94,3.11,3.11,0,0,0-1,2.34,3.35,3.35,0,0,0,1,2.45A3.42,3.42,0,0,0,34.49,23.27Z"/></g></g></svg>