<svg xmlns="http://www.w3.org/2000/svg" viewBox="0 0 85 85"><defs><style>.cls-1{fill:#fff;}</style></defs><title>Recurso 80</title><g id="Capa_2" data-name="Capa 2"><g id="Layer_1" data-name="Layer 1"><circle cx="42.5" cy="42.5" r="42.5"/><path class="cls-1" d="M48.64,24.87a3.33,3.33,0,0,0,2.43-1,3.26,3.26,0,0,0,1-2.38,3,3,0,0,0-1-2.26,3.42,3.42,0,0,0-2.43-.92,3.29,3.29,0,0,0-2.42,1,3.14,3.14,0,0,0-1,2.32,3,3,0,0,0,1,2.29A3.31,3.31,0,0,0,48.64,24.87Z"/><polygon class="cls-1" points="52.5 44.03 51.42 30.25 33.35 26.36 33.35 23.04 32.5 23.04 32.5 28.87 33.23 28.87 46.16 31.65 46.16 66.65 51.12 66.65 51.12 44.14 52.5 44.03"/></g></g></svg>