<svg xmlns="http://www.w3.org/2000/svg" viewBox="0 0 85 85"><defs><style>.cls-1{fill:#fff;}</style></defs><title>Recurso 81</title><g id="Capa_2" data-name="Capa 2"><g id="Layer_1" data-name="Layer 1"><circle cx="42.5" cy="42.5" r="42.5"/><path class="cls-1" d="M40.82,28.86a3.4,3.4,0,0,0,2.5-1,3.34,3.34,0,0,0,1-2.45,3.11,3.11,0,0,0-1-2.34,3.53,3.53,0,0,0-2.5-.94,3.37,3.37,0,0,0-2.5,1,3.27,3.27,0,0,0-1,2.39,3.21,3.21,0,0,0,1,2.37A3.46,3.46,0,0,0,40.82,28.86Z"/><polygon class="cls-1" points="43.38 48.44 43.38 34.36 38.27 34.36 38.27 48.44 38.25 48.44 38.25 50.99 51.44 50.99 51.44 62.86 54 62.86 54 48.44 43.38 48.44"/><path class="cls-1" d="M36.5,40.36H31v22.5h8.8A10.2,10.2,0,0,0,50,52.65H36.5Z"/></g></g></svg>