<svg xmlns="http://www.w3.org/2000/svg" viewBox="0 0 84.98 84.98"><defs><style>.cls-1{fill:#fff;}</style></defs><title>Recurso 84</title><g id="Capa_2" data-name="Capa 2"><g id="Layer_1" data-name="Layer 1"><circle cx="42.49" cy="42.49" r="42.49"/><path class="cls-1" d="M21,44.14a9.59,9.59,0,0,0,9.61,0,7,7,0,0,1,7.05,0A10.59,10.59,0,0,0,39.8,45l0,.06,0,0a9.54,9.54,0,0,0,7.42-.92,7,7,0,0,1,7.05,0,9.61,9.61,0,0,0,9.62,0,7,7,0,0,1,7,0l1.28-2.22a9.61,9.61,0,0,0-9.62,0,7,7,0,0,1-7,0,9.64,9.64,0,0,0-4.54-1.27l-1.86-2.48h0l-2.75-3.74-4.35-6L29.59,35.32l1.22,2.25,10.58-5.78,2.76,3.78L36.81,41l0,.06a9.61,9.61,0,0,0-7.51.89,7,7,0,0,1-7,0,9.61,9.61,0,0,0-9.62,0L14,44.14A7,7,0,0,1,21,44.14ZM48.17,41a9.61,9.61,0,0,0-2.15.9,7.06,7.06,0,0,1-3.13.93l4.28-3.16Z"/><path class="cls-1" d="M21,50.22a9.59,9.59,0,0,0,9.61,0,7,7,0,0,1,7.05,0,9.61,9.61,0,0,0,9.62,0,7,7,0,0,1,7.05,0,9.61,9.61,0,0,0,9.62,0,7,7,0,0,1,7,0L72.3,48a9.61,9.61,0,0,0-9.62,0,7,7,0,0,1-7,0A9.59,9.59,0,0,0,46,48,7,7,0,0,1,39,48a9.61,9.61,0,0,0-9.62,0,7,7,0,0,1-7,0,9.61,9.61,0,0,0-9.62,0L14,50.22A7,7,0,0,1,21,50.22Z"/><path class="cls-1" d="M62.68,54.09a7,7,0,0,1-7,0,9.59,9.59,0,0,0-9.61,0,7,7,0,0,1-7.05,0,9.61,9.61,0,0,0-9.62,0,7,7,0,0,1-7,0,9.61,9.61,0,0,0-9.62,0L14,56.3a7,7,0,0,1,7,0,9.59,9.59,0,0,0,9.61,0,7,7,0,0,1,7.05,0,9.61,9.61,0,0,0,9.62,0,7,7,0,0,1,7.05,0,9.61,9.61,0,0,0,9.62,0,7,7,0,0,1,7,0l1.28-2.21A9.61,9.61,0,0,0,62.68,54.09Z"/><path class="cls-1" d="M54.43,34.27A3.34,3.34,0,0,0,57,33.62a3.11,3.11,0,0,0,1.29-2.19,3.47,3.47,0,0,0-.73-2.57,3.39,3.39,0,0,0-2.28-1.43,3.28,3.28,0,0,0-2.52.62,3.17,3.17,0,0,0-1.31,2.21,3.45,3.45,0,0,0,.7,2.59A3.39,3.39,0,0,0,54.43,34.27Z"/></g></g></svg>