<svg xmlns="http://www.w3.org/2000/svg" viewBox="0 0 85 85"><defs><style>.cls-1{fill:#fff;}</style></defs><title>Recurso 77</title><g id="Capa_2" data-name="Capa 2"><g id="Layer_1" data-name="Layer 1"><circle cx="42.5" cy="42.5" r="42.5"/><polygon class="cls-1" points="34.18 44.06 41.22 44.06 41.22 66.97 43.78 66.97 43.78 44.06 50.82 44.06 50.82 41.51 34.18 41.51 34.18 44.06"/><path class="cls-1" d="M23.6,23a3.38,3.38,0,0,0,2.5-1,3.32,3.32,0,0,0,1-2.45,3.08,3.08,0,0,0-1-2.34,3.47,3.47,0,0,0-2.5-.94,3.42,3.42,0,0,0-2.5,1,3.28,3.28,0,0,0-1,2.4,3.16,3.16,0,0,0,1,2.36A3.44,3.44,0,0,0,23.6,23Z"/><polygon class="cls-1" points="38.81 41.31 39.53 38.86 31.27 36.42 26.18 28.47 26.16 28.48 26.16 28.47 21.05 28.47 21.05 48.82 21.06 48.82 21.06 59.53 17.15 67.64 19.45 68.75 21.06 65.41 21.06 68.2 23.61 68.2 23.61 60.12 26.16 54.85 26.16 48.82 26.16 48.82 26.16 33.18 29.63 38.6 38.81 41.31"/><path class="cls-1" d="M61.4,23a3.44,3.44,0,0,0,2.5-1,3.16,3.16,0,0,0,1-2.36,3.28,3.28,0,0,0-1-2.4,3.42,3.42,0,0,0-2.5-1,3.51,3.51,0,0,0-2.51.94,3.11,3.11,0,0,0-1,2.34,3.35,3.35,0,0,0,1,2.45A3.42,3.42,0,0,0,61.4,23Z"/><polygon class="cls-1" points="67.85 67.64 63.94 59.53 63.94 48.82 63.95 48.82 63.95 28.47 58.84 28.47 58.84 28.48 58.82 28.47 53.73 36.42 45.47 38.86 46.19 41.31 55.37 38.6 58.84 33.18 58.84 48.82 58.84 48.82 58.84 54.85 61.39 60.12 61.39 68.2 63.94 68.2 63.94 65.41 65.55 68.75 67.85 67.64"/></g></g></svg>