<svg xmlns="http://www.w3.org/2000/svg" viewBox="0 0 85 85"><defs><style>.cls-1{fill:#fff;}</style></defs><title>Recurso 97</title><g id="Capa_2" data-name="Capa 2"><g id="Layer_1" data-name="Layer 1"><circle cx="42.5" cy="42.5" r="42.5"/><path class="cls-1" d="M42.5,23.27a3.42,3.42,0,0,0,2.5-1,3.14,3.14,0,0,0,1-2.36,3.27,3.27,0,0,0-1-2.4,3.4,3.4,0,0,0-2.5-1,3.48,3.48,0,0,0-2.5.94,3.11,3.11,0,0,0-1,2.34,3.36,3.36,0,0,0,1,2.45A3.4,3.4,0,0,0,42.5,23.27Z"/><polygon class="cls-1" points="47.36 46.95 45.92 28.55 39.08 28.55 37.64 46.95 39.94 47.13 39.94 68.45 45.06 68.45 45.06 47.13 47.36 46.95"/></g></g></svg>