<svg xmlns="http://www.w3.org/2000/svg" viewBox="0 0 85 85"><defs><style>.cls-1{fill:#fff;}</style></defs><title>Recurso 92</title><g id="Capa_2" data-name="Capa 2"><g id="Layer_1" data-name="Layer 1"><circle cx="42.5" cy="42.5" r="42.5"/><polygon class="cls-1" points="68.83 32.73 66.5 31.66 61.06 43.49 48.45 40.8 48.45 52.56 51.01 52.56 51.01 43.96 61.07 46.11 66.65 53.34 68.68 51.77 63.28 44.79 68.83 32.73"/><polygon class="cls-1" points="50.82 35.66 50.82 33.1 34.18 33.1 34.18 35.66 41.22 35.66 41.22 52.56 43.78 52.56 43.78 35.66 50.82 35.66"/><polygon class="cls-1" points="18.5 31.66 16.17 32.73 21.72 44.79 16.32 51.77 18.35 53.34 23.93 46.11 33.99 43.96 33.99 52.56 36.55 52.56 36.55 40.8 23.94 43.49 18.5 31.66"/></g></g></svg>