<svg height="512pt" viewBox="0 -21 512 512" width="512pt" xmlns="http://www.w3.org/2000/svg"><path d="m282 359.320312c.171875-14.285156-6.5-28.132812-19.839844-41.164062-3.371094-3.292969-8.769531-3.234375-12.066406.144531-3.292969 3.371094-3.222656 8.773438.144531 12.066407 9.867188 9.636718 14.808594 19.3125 14.695313 28.75-.109375 9.140624-5 18.285156-14.625 27.238281-12.859375 12.261719-19.492188 25.421875-19.703125 39.097656-.222657 14.054687 6.339843 27.957031 19.515625 41.328125 1.671875 1.699219 3.875 2.542969 6.074218 2.542969 2.160157 0 4.328126-.820313 5.992188-2.457031 3.359375-3.3125 3.394531-8.710938.09375-12.066407-9.839844-9.992187-14.753906-19.769531-14.609375-29.082031.144531-8.941406 4.992187-18.03125 14.34375-26.949219 13.089844-12.175781 19.816406-25.453125 19.984375-39.449219zm0 0"/><path d="m375.765625 359.175781c.171875-14.25-6.46875-28.058593-19.738281-41.011719-3.371094-3.292968-8.773438-3.234374-12.066406.144532-3.292969 3.371094-3.226563 8.773437.144531 12.066406 9.796875 9.574219 14.710937 19.191406 14.59375 28.605469-.113281 9.183593-5.042969 18.371093-14.71875 27.382812-12.863281 12.261719-19.492188 25.421875-19.714844 39.101563-.222656 14.054687 6.351563 27.953125 19.515625 41.324218 1.671875 1.699219 3.875 2.542969 6.078125 2.542969 2.15625 0 4.324219-.816406 5.988281-2.457031 3.363282-3.308594 3.398438-8.710938.09375-12.066406-9.839844-9.992188-14.753906-19.777344-14.609375-29.082032.144531-8.941406 4.992188-18.03125 14.355469-26.945312 13.148438-12.253906 19.90625-25.574219 20.078125-39.605469zm0 0"/><path d="m188.03125 359.175781c.171875-14.25-6.46875-28.058593-19.738281-41.011719-3.371094-3.292968-8.769531-3.234374-12.066407.144532-3.292968 3.371094-3.222656 8.773437.148438 12.066406 9.792969 9.574219 14.710938 19.191406 14.589844 28.605469-.109375 9.183593-5.042969 18.371093-14.71875 27.382812-12.859375 12.261719-19.492188 25.421875-19.710938 39.101563-.222656 14.054687 6.347656 27.953125 19.515625 41.324218 1.671875 1.699219 3.871094 2.542969 6.074219 2.542969 2.160156 0 4.328125-.816406 5.988281-2.457031 3.363281-3.308594 3.398438-8.710938.097657-12.066406-9.839844-9.992188-14.757813-19.777344-14.609376-29.082032.144532-8.941406 4.992188-18.03125 14.351563-26.945312 13.148437-12.253906 19.910156-25.574219 20.078125-39.605469zm0 0"/><path d="m68.265625 51.199219h51.199219v17.066406h-51.199219zm0 0"/><path d="m469.332031 0h-426.664062c-23.527344 0-42.667969 19.140625-42.667969 42.667969v59.730469h512v-59.730469c0-23.527344-19.140625-42.667969-42.667969-42.667969zm-332.796875 76.800781c0 4.710938-3.824218 8.53125-8.535156 8.53125h-68.265625c-4.710937 0-8.535156-3.820312-8.535156-8.53125v-34.132812c0-4.710938 3.824219-8.535157 8.535156-8.535157h68.265625c4.710938 0 8.535156 3.824219 8.535156 8.535157zm238.929688-8.535156h-8.53125c-4.710938 0-8.535156-3.820313-8.535156-8.53125s3.824218-8.535156 8.535156-8.535156h8.53125c4.710937 0 8.535156 3.824219 8.535156 8.535156s-3.824219 8.53125-8.535156 8.53125zm42.667968 0h-8.53125c-4.710937 0-8.535156-3.820313-8.535156-8.53125s3.824219-8.535156 8.535156-8.535156h8.53125c4.710938 0 8.535157 3.824219 8.535157 8.535156s-3.824219 8.53125-8.535157 8.53125zm42.667969 0h-8.535156c-4.710937 0-8.53125-3.820313-8.53125-8.53125s3.820313-8.535156 8.53125-8.535156h8.535156c4.710938 0 8.53125 3.824219 8.53125 8.535156s-3.820312 8.53125-8.53125 8.53125zm0 0"/><path d="m0 230.398438c0 23.527343 19.140625 42.667968 42.667969 42.667968h15.734375c5.988281 10.316406 17.058594 17.066406 29.386718 17.066406h336.421876c12.328124 0 23.398437-6.75 29.386718-17.066406h15.734375c23.527344 0 42.667969-19.140625 42.667969-42.667968v-110.933594h-512zm443.964844-25.597657c.714844 0 1.371094.117188 1.96875.324219 1.800781.597656 3.066406 1.910156 3.746094 2.78125 2.3125 2.945312 3.140624 7.234375 2.21875 10.992188l-.5625 2.070312-2.566407 9.429688h-385.5625l-3.074219-11.3125c-.972656-3.953126-.144531-8.234376 2.167969-11.1875.683594-.871094 1.957031-2.183594 3.746094-2.78125.597656-.199219 1.253906-.324219 1.972656-.324219zm-19.753906 68.265625h-336.421876c-7.644531 0-14.375-5.144531-16.382812-12.507812l-.007812-.027344-3.550782-13.054688h376.277344l-3.609375 13.269532c-2.082031 7.25-8.738281 12.320312-16.304687 12.320312zm0 0"/></svg>