<?xml version="1.0" encoding="utf-8"?>
<!-- Generator: Adobe Illustrator 22.0.1, SVG Export Plug-In . SVG Version: 6.00 Build 0)  -->
<svg version="1.1" id="Layer_1" xmlns="http://www.w3.org/2000/svg" xmlns:xlink="http://www.w3.org/1999/xlink" x="0px" y="0px"
	 viewBox="0 0 512 512" style="enable-background:new 0 0 512 512;" xml:space="preserve">
<style type="text/css">
	.st0{fill:#FFFFFF;}
</style>
<g>
	<path d="M236,264.2h-24.2c-4.5,0-8.2-3.7-8.2-8.2s3.7-8.2,8.2-8.2H236c4.5,0,8.2,3.7,8.2,8.2S240.5,264.2,236,264.2z"/>
	<path d="M300.2,264.2H276c-4.5,0-8.2-3.7-8.2-8.2s3.7-8.2,8.2-8.2h24.2c4.5,0,8.2,3.7,8.2,8.2S304.7,264.2,300.2,264.2z"/>
</g>
<g>
	<path d="M167.8,320.5c-2.8,0-5.6-1.5-7.1-4.1c-2.3-3.9-0.9-8.9,3-11.2l29.2-16.9c3.9-2.3,8.9-0.9,11.2,3c2.3,3.9,0.9,8.9-3,11.2
		l-29.2,16.9C170.6,320.2,169.2,320.5,167.8,320.5z"/>
	<path d="M315,224.7c-2.8,0-5.6-1.5-7.1-4.1c-2.3-3.9-0.9-8.9,3-11.2l29.2-16.9c3.9-2.3,8.9-0.9,11.2,3c2.3,3.9,0.9,8.9-3,11.2
		L319,223.6C317.8,224.3,316.4,224.7,315,224.7z"/>
	<path d="M205.1,357.8c-1.4,0-2.8-0.4-4.1-1.1c-3.9-2.3-5.2-7.3-3-11.2l16.9-29.2c2.3-3.9,7.3-5.2,11.2-3c3.9,2.3,5.2,7.3,3,11.2
		l-16.9,29.2C210.6,356.4,207.9,357.8,205.1,357.8z"/>
	<path d="M290,199.8c-1.4,0-2.8-0.4-4.1-1.1c-3.9-2.3-5.2-7.3-3-11.2l16.9-29.2c2.3-3.9,7.3-5.2,11.2-3c3.9,2.3,5.2,7.3,3,11.2
		l-16.9,29.2C295.6,198.3,292.9,199.8,290,199.8z"/>
	<path d="M256,371.5c-4.5,0-8.2-3.7-8.2-8.2v-33.8c0-4.5,3.7-8.2,8.2-8.2c4.5,0,8.2,3.7,8.2,8.2v33.8
		C264.2,367.8,260.5,371.5,256,371.5z"/>
	<path d="M256,190.6c-4.5,0-8.2-3.7-8.2-8.2v-33.8c0-4.5,3.7-8.2,8.2-8.2c4.5,0,8.2,3.7,8.2,8.2v33.8
		C264.2,187,260.5,190.6,256,190.6z"/>
	<path d="M306.9,357.8c-2.8,0-5.6-1.5-7.1-4.1L283,324.5c-2.3-3.9-0.9-8.9,3-11.2c3.9-2.3,8.9-0.9,11.2,3l16.9,29.2
		c2.3,3.9,0.9,8.9-3,11.2C309.7,357.5,308.3,357.8,306.9,357.8z"/>
	<path d="M222,199.8c-2.8,0-5.6-1.5-7.1-4.1L198,166.4c-2.3-3.9-0.9-8.9,3-11.2c3.9-2.3,8.9-0.9,11.2,3l16.9,29.2
		c2.3,3.9,0.9,8.9-3,11.2C224.8,199.4,223.4,199.8,222,199.8z"/>
	<path d="M344.2,320.5c-1.4,0-2.8-0.4-4.1-1.1l-29.2-16.9c-3.9-2.3-5.2-7.3-3-11.2c2.3-3.9,7.3-5.2,11.2-3l29.2,16.9
		c3.9,2.3,5.2,7.3,3,11.2C349.8,319.1,347,320.5,344.2,320.5z"/>
	<path d="M197,224.7c-1.4,0-2.8-0.4-4.1-1.1l-29.2-16.9c-3.9-2.3-5.2-7.3-3-11.2c2.3-3.9,7.3-5.2,11.2-3l29.2,16.9
		c3.9,2.3,5.2,7.3,3,11.2C202.6,223.2,199.9,224.7,197,224.7z"/>
</g>
<path d="M211.8,237H34.5C15.5,237,0,252.5,0,271.5v235c0,3,2.4,5.4,5.4,5.4h27.2c3,0,5.4-2.4,5.4-5.4V275.1h173.7
	c3,0,5.4-2.4,5.4-5.4v-27.2C217.3,239.4,214.8,237,211.8,237z"/>
<g>
	<path d="M21.8,506.6v-235c0-19,15.5-34.5,34.5-34.5H34.5C15.5,237,0,252.5,0,271.5v235c0,3,2.4,5.4,5.4,5.4h21.8
		C24.2,512,21.8,509.6,21.8,506.6z"/>
	<path class="st0" d="M27.2,512.5H5.4c-3.3,0-5.9-2.7-5.9-5.9v-235c0-9.3,3.6-18.1,10.3-24.8c6.6-6.6,15.4-10.3,24.8-10.3
		c0,0,0,0,0,0h21.8v1c-18.8,0-34,15.3-34,34v235c0,2.7,2.2,4.9,4.9,4.9V512.5z M34.5,237.5c-9.1,0-17.6,3.5-24.1,10
		c-6.4,6.4-10,15-10,24.1v235c0,2.7,2.2,4.9,4.9,4.9h18.5c-1.6-1.1-2.6-2.9-2.6-4.9v-235c0-16.5,11.4-30.3,26.7-34H34.5
		C34.5,237.5,34.5,237.5,34.5,237.5z"/>
</g>
<path d="M506.6,0h-27.2c-3,0-5.4,2.4-5.4,5.4v231.4H300.2c-3,0-5.4,2.4-5.4,5.4v27.2c0,3,2.4,5.4,5.4,5.4h177.3
	c19,0,34.5-15.5,34.5-34.5V5.4C512,2.4,509.6,0,506.6,0z"/>
<g>
	<path d="M495.3,219.5V5.4c0-3,2.4-5.4,5.4-5.4h-21.4c-3,0-5.4,2.4-5.4,5.4v231.4h6C486.3,236.2,495.3,232.8,495.3,219.5z"/>
	<path class="st0" d="M473.9,237.4h-0.5V5.4c0-3.3,2.7-5.9,5.9-5.9h21.4v1c-2.7,0-4.9,2.2-4.9,4.9v214.1c0,14-9.9,17.2-15.8,17.9
		L473.9,237.4z M474.4,236.4h5.5c6.8-0.8,14.9-4.3,14.9-16.9V5.4c0-2.1,1.1-3.9,2.6-4.9h-18.1c-2.7,0-4.9,2.2-4.9,4.9V236.4z"/>
</g>
</svg>
