<svg width="35" height="35" viewBox="0 0 35 35" fill="none" xmlns="http://www.w3.org/2000/svg">
<path d="M29.7872 10.0532H19.4026C19.0941 10.0532 18.8441 10.3033 18.8441 10.6117C18.8441 10.9201 19.0941 11.1702 19.4026 11.1702H29.7872C30.0957 11.1702 30.3456 10.9201 30.3456 10.6117C30.3456 10.3033 30.0957 10.0532 29.7872 10.0532Z" fill="white"/>
<path d="M33.8909 14.5213H32.5798V8.93621H32.766C33.0745 8.93621 33.3245 8.68615 33.3245 8.37772C33.3245 8.06928 33.0745 7.81922 32.766 7.81922H31.8138C31.5418 4.26002 28.6922 1.41039 25.133 1.13839V0.558496C25.133 0.250059 24.883 0 24.5745 0C24.266 0 24.016 0.250059 24.016 0.558496V1.13832C20.4568 1.41032 17.6071 4.25995 17.3351 7.81915H16.383C16.0745 7.81915 15.8245 8.06921 15.8245 8.37765C15.8245 8.68608 16.0745 8.93614 16.383 8.93614H16.5692V14.5212H12.6581C12.9025 14.1963 13.0779 13.8167 13.162 13.4042H13.4043C13.7128 13.4042 13.9628 13.1542 13.9628 12.8458C13.9628 12.5373 13.7128 12.2873 13.4043 12.2873H12.6581C12.9025 11.9623 13.0779 11.5827 13.162 11.1703H13.4043C13.7128 11.1703 13.9628 10.9202 13.9628 10.6118C13.9628 10.3033 13.7128 10.0533 13.4043 10.0533H12.6581C12.9025 9.72836 13.0779 9.34876 13.162 8.93628H13.4043C13.7128 8.93628 13.9628 8.68622 13.9628 8.37778C13.9628 8.06935 13.7128 7.81929 13.4043 7.81929H12.6581C12.9025 7.49438 13.0779 7.11478 13.162 6.70229H13.4043C13.7128 6.70229 13.9628 6.45224 13.9628 6.1438C13.9628 5.83536 13.7128 5.5853 13.4043 5.5853H2.23408C1.92557 5.5853 1.67558 5.83536 1.67558 6.1438C1.67558 6.45224 1.92557 6.70229 2.23408 6.70229H2.47648C2.56056 7.11478 2.73583 7.49444 2.98036 7.81929H2.23408C1.92557 7.81929 1.67558 8.06935 1.67558 8.37778C1.67558 8.68622 1.92557 8.93628 2.23408 8.93628H2.47648C2.56056 9.34876 2.73583 9.72843 2.98036 10.0533H2.23408C1.92557 10.0533 1.67558 10.3033 1.67558 10.6118C1.67558 10.9202 1.92557 11.1703 2.23408 11.1703H2.47648C2.56056 11.5827 2.73583 11.9624 2.98036 12.2873H2.23408C1.92557 12.2873 1.67558 12.5373 1.67558 12.8458C1.67558 13.1542 1.92557 13.4042 2.23408 13.4042H2.47648C2.56056 13.8167 2.73583 14.1964 2.98036 14.5212H1.10916C0.800649 14.5212 0.550659 14.7713 0.550659 15.0797V19.5478C0.550659 19.8563 0.800649 20.1063 1.10916 20.1063H28.6764C28.9849 20.1063 29.2349 19.8563 29.2349 19.5478C29.2349 19.2394 28.9849 18.9893 28.6764 18.9893H1.66765V15.6383H33.3325V18.9893H30.9104C30.6019 18.9893 30.3519 19.2394 30.3519 19.5478C30.3519 19.8563 30.6019 20.1063 30.9104 20.1063H33.1383V31.6235C32.2973 31.542 31.8132 31.275 31.2672 30.9737C30.5755 30.5921 29.7915 30.1595 28.298 30.1595C26.8045 30.1595 26.0205 30.5921 25.3288 30.9737C24.6722 31.336 24.105 31.6489 22.8991 31.6489C21.6933 31.6489 21.126 31.336 20.4694 30.9737C19.7776 30.5921 18.9937 30.1595 17.5 30.1595C16.0064 30.1595 15.2224 30.5921 14.5307 30.9737C13.874 31.336 13.3068 31.6489 12.1009 31.6489C10.8951 31.6489 10.3279 31.336 9.6713 30.9737C8.97964 30.5921 8.1957 30.1595 6.70218 30.1595C5.20867 30.1595 4.42465 30.5921 3.73299 30.9737C3.57741 31.0595 3.42681 31.1423 3.27157 31.219C2.88158 31.4119 2.46294 31.5652 1.86179 31.6235V21.7819C1.86179 21.4735 1.6118 21.2234 1.3033 21.2234C0.99479 21.2234 0.7448 21.4735 0.7448 21.7819V32.2075C0.7448 32.5159 0.99479 32.7659 1.3033 32.7659C1.99338 32.7659 2.53083 32.673 2.97885 32.5361V34.4414C2.97885 34.7499 3.22884 34.9999 3.53735 34.9999C3.84585 34.9999 4.09584 34.7499 4.09584 34.4414V32.0486C4.15552 32.0161 4.21452 31.9838 4.27255 31.9518C4.92921 31.5895 5.49639 31.2766 6.70218 31.2766C7.90797 31.2766 8.47515 31.5896 9.13167 31.9517C9.82333 32.3334 10.6073 32.7659 12.1009 32.7659C13.5945 32.7659 14.3785 32.3334 15.0702 31.9518C15.7269 31.5895 16.2941 31.2766 17.5 31.2766C18.7058 31.2766 19.2731 31.5896 19.9297 31.9518C20.6215 32.3334 21.4054 32.7659 22.899 32.7659C24.3926 32.7659 25.1766 32.3334 25.8683 31.9518C26.525 31.5895 27.0921 31.2766 28.2979 31.2766C29.5037 31.2766 30.0709 31.5896 30.7274 31.9517C30.7855 31.9837 30.8444 32.016 30.9041 32.0485V34.4415C30.9041 34.7499 31.1541 35 31.4626 35C31.7711 35 32.0211 34.7499 32.0211 34.4415V32.536C32.4691 32.673 33.0065 32.7659 33.6966 32.7659C34.0051 32.7659 34.2551 32.5159 34.2551 32.2075V19.9707C34.3739 19.8683 34.4493 19.7171 34.4493 19.5479V15.0798C34.4494 14.7714 34.1994 14.5213 33.8909 14.5213ZM10.4256 14.5213H5.21277C4.48467 14.5213 3.86383 14.0543 3.63333 13.4043H12.005C11.7744 14.0543 11.1536 14.5213 10.4256 14.5213ZM10.4256 12.2873H5.21277C4.48467 12.2873 3.86383 11.8203 3.63333 11.1703H12.005C11.7744 11.8202 11.1536 12.2873 10.4256 12.2873ZM10.4256 10.0532H5.21277C4.48467 10.0532 3.86383 9.58624 3.63333 8.93621H12.005C11.7744 9.58617 11.1536 10.0532 10.4256 10.0532ZM10.4256 7.81915H5.21277C4.48467 7.81915 3.86383 7.35219 3.63333 6.70216H12.005C11.7744 7.35219 11.1536 7.81915 10.4256 7.81915ZM24.5745 2.23405C27.7737 2.23405 30.4083 4.69246 30.6915 7.81915H18.4574C18.7407 4.69246 21.3752 2.23405 24.5745 2.23405ZM31.4628 14.5213H17.6862V8.93621H31.4628V14.5213Z" fill="white"/>
<path d="M30.532 26.0638C30.8405 26.0638 31.0905 25.8138 31.0905 25.5053C31.0905 25.1969 30.8405 24.9468 30.532 24.9468C30.2236 24.9468 29.9735 25.1969 29.9735 25.5053C29.9735 25.8138 30.2236 26.0638 30.532 26.0638Z" fill="white"/>
<path d="M28.2978 28.2978C28.6062 28.2978 28.8563 28.0478 28.8563 27.7393C28.8563 27.4309 28.6062 27.1808 28.2978 27.1808C27.9893 27.1808 27.7393 27.4309 27.7393 27.7393C27.7393 28.0478 27.9893 28.2978 28.2978 28.2978Z" fill="white"/>
</svg>
