<svg width="20" height="20" viewBox="0 0 20 20" fill="none" xmlns="http://www.w3.org/2000/svg">
<path d="M15.6635 1.77431C15.6626 0.893543 14.9489 0.179711 14.0682 0.178955H11.941V1.24725C11.941 1.4342 11.7896 1.58566 11.6026 1.58566C11.4157 1.58566 11.2642 1.4342 11.2642 1.24725V0.178955H4.39932V1.24725C4.39932 1.4342 4.24787 1.58566 4.06091 1.58566C3.87396 1.58566 3.7225 1.4342 3.7225 1.24725V0.178955H1.59536C0.714588 0.179711 0.00094422 0.893543 0 1.77431V3.08924H15.6586V1.77431H15.6635Z" fill="white"/>
<path d="M15.5039 10.1814C15.5571 10.1814 15.6102 10.1814 15.6634 10.1863V3.76123H0.00482178V14.8708C0.0055772 15.7515 0.71941 16.4652 1.60018 16.4661H10.4519C10.3722 16.1009 10.3318 15.7281 10.331 15.3542C10.3342 12.4987 12.6483 10.1846 15.5039 10.1814ZM3.60647 8.20418H11.0998C11.2866 8.20418 11.4382 8.35563 11.4382 8.54259C11.4382 8.72935 11.2866 8.881 11.0998 8.881H3.60647C3.41951 8.881 3.26806 8.72935 3.26806 8.54259C3.26806 8.35563 3.41951 8.20418 3.60647 8.20418ZM8.09266 12.0234H3.60647C3.41951 12.0234 3.26806 11.8717 3.26806 11.685C3.26806 11.498 3.41951 11.3466 3.60647 11.3466H8.09266C8.27961 11.3466 8.43107 11.498 8.43107 11.685C8.43107 11.8717 8.27961 12.0234 8.09266 12.0234Z" fill="white"/>
<path d="M15.5038 10.8582C13.0207 10.8582 11.0078 12.871 11.0078 15.3542C11.0078 17.8373 13.0207 19.8502 15.5038 19.8502C17.9869 19.8502 19.9998 17.8373 19.9998 15.3542C19.9978 12.872 17.986 10.8602 15.5038 10.8582ZM18.0564 15.6926H15.8422V17.9068C15.8422 18.0935 15.6908 18.2452 15.5038 18.2452C15.3171 18.2452 15.1654 18.0935 15.1654 17.9068V15.6926H12.9512C12.7644 15.6926 12.6128 15.5411 12.6128 15.3542C12.6128 15.1672 12.7644 15.0158 12.9512 15.0158H15.1654V12.8016C15.1654 12.6148 15.3171 12.4631 15.5038 12.4631C15.6908 12.4631 15.8422 12.6148 15.8422 12.8016V15.0158H18.0564C18.2434 15.0158 18.3949 15.1672 18.3949 15.3542C18.3949 15.5411 18.2434 15.6926 18.0564 15.6926Z" fill="white"/>
</svg>
