<?xml version="1.0" encoding="iso-8859-1"?>
<!-- Generator: Adobe Illustrator 21.0.0, SVG Export Plug-In . SVG Version: 6.00 Build 0)  -->
<svg xmlns="http://www.w3.org/2000/svg" xmlns:xlink="http://www.w3.org/1999/xlink" version="1.1" id="Capa_1" x="0px" y="0px" viewBox="0 0 512 512" style="enable-background:new 0 0 512 512;" xml:space="preserve" width="512" height="512">
<g>
	<path d="M512,140.771c0-16.187-6.304-31.405-17.75-42.851L414.079,17.75C402.634,6.303,387.416,0,371.229,0   s-31.405,6.303-42.851,17.75L220.633,125.494c-11.446,11.446-17.75,26.665-17.75,42.852c0,8.324,1.667,16.393,4.844,23.823   L5.903,393.993C2.097,397.796,0,402.854,0,408.236v83.627C0,502.967,9.033,512,20.137,512h80.618   c11.104,0,20.137-9.033,20.137-20.137v-34.398h34.397c11.104,0,20.137-9.033,20.137-20.137v-34.398h37.407   c5.379,0,10.436-2.095,14.238-5.898l92.76-92.759c7.431,3.176,15.499,4.843,23.823,4.843c16.188,0,31.405-6.303,42.852-17.75   L494.25,183.623v0C505.696,172.177,512,156.958,512,140.771z M208.747,372.931h-43.185c-11.104,0-20.137,9.033-20.137,20.136   v34.398h-34.397c-11.104,0-20.137,9.033-20.137,20.136V482H30v-69.677l195.879-195.88l69.678,69.679L208.747,372.931z    M473.037,162.409L365.293,270.154c-5.78,5.78-13.465,8.963-21.639,8.963s-15.858-3.183-21.638-8.962l-80.171-80.171   c-5.78-5.779-8.963-13.464-8.963-21.638s3.183-15.858,8.963-21.638L349.591,38.962C355.37,33.183,363.055,30,371.229,30   s15.858,3.183,21.638,8.962l80.171,80.171c5.78,5.779,8.963,13.464,8.963,21.638S478.817,156.63,473.037,162.409z"/>
	<path d="M399.143,85.478c-5.857-5.857-15.355-5.858-21.213,0c-5.858,5.858-5.858,15.355,0,21.213l28.208,28.208   c2.929,2.929,6.768,4.393,10.606,4.393s7.678-1.464,10.606-4.394c5.858-5.858,5.858-15.355,0-21.213L399.143,85.478z"/>
</g>















</svg>
