<svg width="40" height="40" viewBox="0 0 40 40" fill="none" xmlns="http://www.w3.org/2000/svg">
<path d="M26.6546 0.0865479C25.5339 0.0865479 24.6255 0.995262 24.6255 2.11604C24.6255 3.23682 25.5339 4.14521 26.6546 4.14521C27.7754 4.14521 28.6841 3.23682 28.6841 2.11604C28.6841 0.995262 27.7754 0.0865479 26.6546 0.0865479ZM26.6546 2.79254C26.2811 2.79254 25.9782 2.48964 25.9782 2.11604C25.9782 1.74245 26.2811 1.43954 26.6546 1.43954C27.0282 1.43954 27.3311 1.74245 27.3311 2.11604C27.3311 2.48964 27.0282 2.79254 26.6546 2.79254Z" fill="white"/>
<path d="M20.5662 3.46906C18.6983 3.46906 17.1841 4.98325 17.1841 6.85121C17.1841 8.71918 18.6983 10.2337 20.5662 10.2337C22.4342 10.2337 23.9487 8.71918 23.9487 6.85121C23.9464 4.98424 22.4332 3.47104 20.5662 3.46906ZM20.5662 8.88071C19.4455 8.88071 18.5367 7.97199 18.5367 6.85121C18.5367 5.73043 19.4455 4.82172 20.5662 4.82172C21.687 4.82172 22.5957 5.73043 22.5957 6.85121C22.5957 7.97199 21.687 8.88071 20.5662 8.88071Z" fill="white"/>
<path d="M11.0961 4.82172C9.60176 4.82172 8.39014 6.03334 8.39014 7.52771C8.39014 9.02208 9.60176 10.2337 11.0961 10.2337C12.5905 10.2337 13.8018 9.02208 13.8018 7.52771C13.8018 6.03334 12.5905 4.82172 11.0961 4.82172ZM11.0961 8.8807C10.3486 8.8807 9.74313 8.2749 9.74313 7.52771C9.74313 6.78052 10.3486 6.17471 11.0961 6.17471C11.8433 6.17471 12.4488 6.78052 12.4488 7.52771C12.4488 8.2749 11.843 8.8807 11.0961 8.8807Z" fill="white"/>
<path d="M7.0371 0.0865479C5.91632 0.0865479 5.00793 0.995262 5.00793 2.11604C5.00793 3.23682 5.91632 4.14521 7.0371 4.14521C8.15788 4.14521 9.0666 3.23682 9.0666 2.11604C9.0666 0.995262 8.15788 0.0865479 7.0371 0.0865479ZM7.0371 2.79254C6.66351 2.79254 6.3606 2.48964 6.3606 2.11604C6.3606 1.74245 6.66351 1.43954 7.0371 1.43954C7.41069 1.43954 7.7136 1.74245 7.7136 2.11604C7.7136 2.48964 7.41069 2.79254 7.0371 2.79254Z" fill="white"/>
<path d="M23.4591 21.8188L24.7391 21.3834L29.1145 34.2428L27.8342 34.6782L23.4591 21.8188Z" fill="white"/>
<path d="M19.9983 22.9924L21.2783 22.5567L25.6537 35.4161L24.3734 35.8518L19.9983 22.9924Z" fill="white"/>
<path d="M26.9193 20.6389L28.1996 20.2035L32.5734 33.0629L31.2934 33.4983L26.9193 20.6389Z" fill="white"/>
<path d="M39.7952 25.0873L36.5987 15.6893C35.9212 13.6968 33.757 12.6309 31.7645 13.3084C31.7641 13.3087 31.7638 13.3087 31.7635 13.3087L29.9302 13.9323L29.8119 13.5835C28.9501 11.0447 26.1936 9.68506 23.6551 10.5469C22.7414 10.8567 21.941 11.4318 21.3561 12.1988C20.1725 12.1103 19.0167 12.5869 18.2395 13.4841C18.0935 13.4362 17.9445 13.3989 17.7932 13.3718C17.2931 13.2849 16.7808 13.2988 16.2859 13.4124C14.3489 11.558 11.276 11.625 9.42154 13.562C8.75594 14.2574 8.31166 15.1354 8.14617 16.0837L8.08242 16.4471L6.17481 16.1134C4.10172 15.7508 2.12739 17.1371 1.76436 19.2102V19.2109L0.0569309 28.9884C-0.302789 31.0615 1.08324 33.0345 3.15501 33.3992L5.06196 33.7325L5.00118 34.0803C4.07562 34.2963 3.50053 35.2219 3.71656 36.1474C3.87379 36.82 4.41783 37.3336 5.09863 37.4519L19.5072 39.9716C19.6053 39.9891 19.7044 39.998 19.8035 39.998C20.4761 39.995 21.0852 39.6009 21.3636 38.9889C21.6646 39.0576 21.979 39.0401 22.2707 38.9387L36.1201 34.2269C37.0202 33.9207 37.5015 32.9427 37.1953 32.0425C36.9733 31.3898 36.3834 30.9327 35.696 30.8805L35.5823 30.5472L37.4146 29.9235C39.4058 29.2434 40.4704 27.0801 39.7952 25.0873ZM28.7519 14.6597L28.9891 15.3577L24.3346 16.9412L24.0951 16.2433L28.7519 14.6597ZM17.4949 15.1757C17.78 15.0789 18.0806 15.0359 18.3815 15.0495C18.6289 15.0617 18.8625 14.9368 18.9896 14.7248L18.9919 14.7254C19.5228 13.8468 20.5451 13.3926 21.5529 13.5875C21.8271 13.64 22.1055 13.5191 22.2539 13.2823C22.6773 12.6011 23.3244 12.0885 24.0842 11.8315C25.6684 11.2947 27.4112 11.9517 28.2466 13.4008L23.0162 15.1806C22.6635 15.3018 22.4755 15.686 22.5961 16.0391L23.6052 19.0067C23.7472 19.4778 23.48 19.9746 23.009 20.1166C22.5614 20.2514 22.0857 20.0172 21.9196 19.5802L21.5813 18.5912C21.4727 18.2338 21.0944 18.0323 20.737 18.1413C20.3796 18.2503 20.1781 18.6282 20.2871 18.9856C20.2914 18.9998 20.296 19.0137 20.3013 19.0275C20.4513 19.4963 20.1927 19.9977 19.7239 20.1473C19.2671 20.2933 18.7766 20.0512 18.6144 19.5997L17.9379 17.621C17.8173 17.2679 17.4335 17.079 17.08 17.1989L15.843 17.6197C15.7875 16.528 16.461 15.5314 17.4949 15.1757ZM17.116 19.3998L16.4177 19.637L16.1812 18.939L16.8785 18.7022L17.116 19.3998ZM13.5354 13.4686L13.5373 13.4692C14.3295 13.6047 15.0492 14.0113 15.5744 14.6191C15.6098 14.6574 15.6501 14.6914 15.6934 14.7205C15.1662 15.2146 14.7893 15.8479 14.6063 16.5472L9.66796 15.6629C10.2691 14.1031 11.8881 13.1845 13.5354 13.4686ZM9.3644 16.9895L14.5035 17.9081C14.5303 18.1638 14.5835 18.4158 14.6618 18.6602L9.23788 17.7132L9.3644 16.9895ZM3.38459 32.0663C2.04943 31.8291 1.15789 30.5571 1.38945 29.2213L3.10018 19.4431C3.33306 18.1066 4.60513 17.2118 5.94161 17.4446C5.94293 17.445 5.94425 17.445 5.94557 17.4453L7.85185 17.7783L7.72534 18.5046L6.33304 18.2612C5.1125 18.0475 3.94977 18.864 3.73605 20.0846C3.73572 20.0856 3.73572 20.0866 3.73539 20.0875L2.20534 28.8364C1.99261 30.0576 2.81049 31.2204 4.03169 31.4334L5.42399 31.6769L5.29748 32.4032L3.38459 32.0663ZM7.4918 19.8375L5.65522 30.3414L4.26192 30.0979C3.77767 30.013 3.45363 29.5516 3.53852 29.0673C3.53852 29.0673 3.53885 29.0673 3.53885 29.067L5.0689 20.3178C5.15511 19.8339 5.61558 19.5108 6.09983 19.5937L7.4918 19.8375ZM20.1679 38.3391C20.1325 38.5396 19.9413 38.6737 19.7408 38.6384V38.6397L5.33183 36.119C5.13034 36.091 4.98962 35.9046 5.0177 35.7032C5.0461 35.5013 5.23241 35.3606 5.4339 35.389C5.44249 35.39 5.45075 35.3917 5.45901 35.3933C5.82731 35.4574 6.17745 35.2113 6.24187 34.8433L9.006 19.0404L15.1549 20.1159L19.8693 33.9776L19.318 37.1292C19.2869 37.3059 19.3275 37.4876 19.4309 37.6345C19.5343 37.7812 19.6916 37.881 19.8686 37.9117C20.0691 37.947 20.2032 38.1383 20.1679 38.3391ZM35.915 32.4786C35.9807 32.6708 35.8783 32.8799 35.6861 32.9456C35.6857 32.9456 35.6857 32.946 35.6857 32.946L21.8363 37.658C21.6434 37.7241 21.434 37.6213 21.3679 37.4284C21.3019 37.2355 21.4046 37.0261 21.5975 36.96C21.9513 36.8398 22.1406 36.4556 22.0203 36.1019V36.1015L16.8541 20.9143L17.6604 20.6402C18.3898 21.6367 19.7887 21.8534 20.7849 21.1241C20.9062 21.0356 21.0181 20.9348 21.1192 20.8235C21.3058 21.0227 21.5265 21.1862 21.7713 21.3068C22.8831 21.8538 24.2282 21.3959 24.7755 20.2841C25.0381 19.7503 25.0781 19.1342 24.8865 18.571L24.7676 18.2225L29.4228 16.6383L34.5897 31.8255C34.7099 32.1793 35.0938 32.3689 35.4479 32.249C35.4482 32.2487 35.4486 32.2487 35.4489 32.2483C35.6408 32.1839 35.8492 32.2866 35.915 32.4786ZM31.0404 17.1903L32.3782 16.7351C32.8436 16.5766 33.3497 16.8253 33.5082 17.2907C33.5082 17.291 33.5086 17.2917 33.5086 17.2924L36.3695 25.7004C36.5274 26.1661 36.2783 26.6718 35.8129 26.8307L34.4748 27.2859L31.0404 17.1903ZM36.9803 28.6402L35.148 29.2639L34.9078 28.5659L36.2463 28.1104C37.4186 27.7097 38.0452 26.4363 37.6475 25.2633L34.7859 16.8547C34.3849 15.6834 33.1122 15.0567 31.9392 15.4531L30.6014 15.9083L30.3646 15.211L32.2018 14.59C33.4874 14.1527 34.884 14.8401 35.3217 16.1257L38.5159 25.5217C38.9513 26.8066 38.2642 28.2016 36.9803 28.6402Z" fill="white"/>
<path d="M12.0184 36.3889L14.3588 23.0092L15.6916 23.2424L13.3509 36.6221L12.0184 36.3889Z" fill="white"/>
<path d="M15.6262 37.0224L16.9383 29.065L18.2728 29.285L16.9604 37.2424L15.6262 37.0224Z" fill="white"/>
<path d="M8.42273 35.756L10.7631 22.375L12.0959 22.6079L9.75525 35.9888L8.42273 35.756Z" fill="white"/>
</svg>
