<svg width="48" height="48" viewBox="0 0 48 48" fill="none" xmlns="http://www.w3.org/2000/svg">
<path d="M16.5578 42.2895L17.739 42.6435L18.1695 41.2065L16.989 40.8525C16.8349 40.8055 16.6999 40.7103 16.6036 40.5811C16.5074 40.4518 16.4551 40.2951 16.4543 40.134V35.109C17.1012 34.9476 17.7295 34.7193 18.3293 34.428L17.6745 33.078C17.0068 33.401 16.2983 33.6318 15.5685 33.7643C15.3957 33.7957 15.2394 33.8868 15.1269 34.0217C15.0144 34.1565 14.9527 34.3266 14.9528 34.5023V40.1363C14.9512 40.6205 15.1068 41.0922 15.3962 41.4805C15.6857 41.8688 16.0932 42.1527 16.5578 42.2895Z" fill="white"/>
<path d="M36.9353 8.45916L36.5648 9.91341C37.582 10.1779 38.4969 10.7406 39.1919 11.5291C39.8869 12.3176 40.3301 13.296 40.4648 14.3384L41.9535 14.1569C41.7831 12.8144 41.2143 11.5538 40.3205 10.5378C39.4267 9.52179 38.2488 8.79697 36.939 8.45691L36.9353 8.45916Z" fill="white"/>
<path d="M40.3366 17.1964L40.4494 15.6964L41.9449 15.8089L41.8321 17.3089L40.3366 17.1964Z" fill="white"/>
<path d="M35.9543 1.5H29.9543C29.3575 1.5 28.7852 1.73705 28.3633 2.15901C27.9413 2.58097 27.7043 3.15326 27.7043 3.75V5.71125C26.2689 6.16873 24.9588 6.95186 23.8762 7.99945C22.7936 9.04704 21.9679 10.3307 21.4635 11.7502L22.878 12.2498C23.4493 10.6423 24.5037 9.25096 25.8968 8.26635C27.2898 7.28173 28.9534 6.75208 30.6593 6.75H35.25C36.3857 6.75008 37.5091 6.98464 38.55 7.43899C39.5908 7.89334 40.5266 8.55769 41.2988 9.39044C42.071 10.2232 42.663 11.2064 43.0376 12.2785C43.4122 13.3506 43.5615 14.4885 43.476 15.621L43.125 20.25H24.75V21.75H43.014L41.364 43.6125C41.3343 43.9894 41.1639 44.3412 40.8867 44.5983C40.6095 44.8553 40.2458 44.9987 39.8678 45H37.4543V46.5H39.8678C40.6236 46.4969 41.3506 46.2099 41.9048 45.6959C42.4589 45.1819 42.7997 44.4785 42.8595 43.725L44.9715 15.7335C45.1375 13.5449 44.5595 11.3643 43.3313 9.5452C42.103 7.72612 40.2964 6.37515 38.2043 5.71125V3.75C38.2043 3.15326 37.9672 2.58097 37.5452 2.15901C37.1233 1.73705 36.551 1.5 35.9543 1.5ZM30.6593 5.25C30.1721 5.25081 29.6858 5.28816 29.2043 5.36175V3.75C29.2043 3.55109 29.2833 3.36032 29.4239 3.21967C29.5646 3.07902 29.7553 3 29.9543 3H35.9543C36.1532 3 36.3439 3.07902 36.4846 3.21967C36.6252 3.36032 36.7043 3.55109 36.7043 3.75V5.373C36.2233 5.29553 35.7372 5.25442 35.25 5.25H30.6593Z" fill="white"/>
<path d="M20.2042 46.5H35.2042C35.4031 46.5 35.5939 46.421 35.7346 46.2803C35.8752 46.1397 35.9542 45.9489 35.9542 45.75V27.75C35.9542 27.5511 35.8752 27.3603 35.7346 27.2197C35.5939 27.079 35.4031 27 35.2042 27H20.2042C20.0053 27 19.8145 27.079 19.6739 27.2197C19.5332 27.3603 19.4542 27.5511 19.4542 27.75V45.75C19.4542 45.9489 19.5332 46.1397 19.6739 46.2803C19.8145 46.421 20.0053 46.5 20.2042 46.5ZM20.9542 45V36H34.4542V45H20.9542ZM34.4542 28.5V34.5H29.5147L30.4845 33.5303L29.424 32.4697L27.7042 34.1895L25.9845 32.4697L24.924 33.5303L25.8937 34.5H20.9542V28.5H34.4542Z" fill="white"/>
<path d="M22.4542 38.25H23.9542V39.75H22.4542V38.25Z" fill="white"/>
<path d="M26.9542 41.25H28.4542V42.75H26.9542V41.25Z" fill="white"/>
<path d="M30.7043 38.25H32.2043V39.75H30.7043V38.25Z" fill="white"/>
<path d="M5.34148 19.3117L4.70848 24.585C4.43196 26.9195 5.01489 29.2748 6.34834 31.2109C7.68179 33.147 9.67453 34.5313 11.9542 35.1052V40.1302C11.9542 40.2916 11.9022 40.4486 11.8059 40.5781C11.7095 40.7075 11.574 40.8024 11.4195 40.8487L7.14448 42.1312C6.36428 42.3611 5.67995 42.8383 5.19469 43.4911C4.70943 44.1438 4.44955 44.9366 4.45423 45.75C4.45423 45.9489 4.53325 46.1397 4.6739 46.2803C4.81455 46.421 5.00532 46.5 5.20423 46.5H17.9542V45H6.07873C6.19691 44.6606 6.3943 44.3543 6.65451 44.1065C6.91472 43.8587 7.23027 43.6765 7.57498 43.575L11.85 42.2925C12.3147 42.1554 12.7223 41.871 13.0114 41.4823C13.3006 41.0936 13.4557 40.6215 13.4535 40.137V34.5C13.4535 34.3243 13.3919 34.1542 13.2794 34.0194C13.1668 33.8845 13.0105 33.7934 12.8377 33.762C10.7938 33.3877 8.96936 32.2487 7.73569 30.5766C6.50202 28.9046 5.95187 26.8253 6.19723 24.762L6.46948 22.5H21.939L22.2105 24.7642C22.2412 25.017 22.2592 25.2697 22.266 25.5202L23.766 25.4797C23.758 25.1837 23.736 24.8855 23.7 24.585L22.449 14.16C22.427 13.9779 22.3391 13.8103 22.2018 13.6887C22.0646 13.5671 21.8876 13.4999 21.7042 13.5H15.8692L17.1892 6.89998L15.7185 6.59998L14.3392 13.5H11.8942C11.7606 12.5609 11.375 11.6756 10.7785 10.9381C10.182 10.2005 9.39682 9.63843 8.50642 9.31144C7.61602 8.98445 6.65366 8.9048 5.72161 9.08096C4.78957 9.25711 3.92266 9.68249 3.21301 10.3119C2.50337 10.9413 1.9775 11.7512 1.69129 12.6555C1.40508 13.5599 1.36922 14.5248 1.58753 15.4479C1.80584 16.371 2.27016 17.2177 2.93114 17.898C3.59212 18.5784 4.42508 19.0669 5.34148 19.3117ZM21.039 15L21.759 21H14.3692L15.5692 15H21.039ZM12.8392 21H6.64948L7.36948 15H14.0392L12.8392 21ZM6.70423 10.5C7.56838 10.5011 8.40574 10.8 9.07517 11.3465C9.74459 11.893 10.2052 12.6535 10.3792 13.5H6.70423C6.52076 13.5 6.34365 13.5672 6.2064 13.689C6.06916 13.8107 5.98131 13.9786 5.95948 14.1607L5.52298 17.802C4.67806 17.5217 3.96055 16.9498 3.49901 16.1886C3.03747 15.4274 2.86207 14.5267 3.00423 13.648C3.14638 12.7692 3.59681 11.9698 4.27481 11.3929C4.9528 10.8161 5.81405 10.4995 6.70423 10.5Z" fill="white"/>
<path d="M8.20422 24.75H9.70422V26.25H8.20422V24.75Z" fill="white"/>
<path d="M14.9542 26.25H16.4542V27.75H14.9542V26.25Z" fill="white"/>
<path d="M13.4542 30.75H14.9542V32.25H13.4542V30.75Z" fill="white"/>
</svg>
