<svg width="50" height="50" viewBox="0 0 50 50" fill="none" xmlns="http://www.w3.org/2000/svg">
<path d="M49.1667 15H46.6667V13.75C46.6667 12.1392 45.3608 10.8334 43.75 10.8334C43.3167 10.8357 42.8895 10.9357 42.5 11.1259V10C42.5 8.15908 41.0076 6.66669 39.1667 6.66669C37.3257 6.66669 35.8333 8.15908 35.8333 10V15H32.5V14.1667C32.506 12.792 31.3966 11.6726 30.0219 11.6665C29.3974 11.6637 28.7947 11.8957 28.3333 12.3167C27.3912 11.45 25.9421 11.45 25 12.3167C24.0579 11.45 22.6087 11.45 21.6667 12.3167C20.651 11.3902 19.0767 11.4625 18.1502 12.4781C17.7294 12.9395 17.4973 13.5422 17.5 14.1667V15H14.1667V10C14.1667 8.15908 12.6743 6.66669 10.8333 6.66669C8.9924 6.66669 7.5 8.15908 7.5 10V11.1259C7.11052 10.9357 6.68333 10.8357 6.25 10.8334C4.63917 10.8334 3.33333 12.1392 3.33333 13.75V15H0.833333C0.373125 15 0 15.3731 0 15.8334V20.8334C0 21.2936 0.373125 21.6667 0.833333 21.6667H3.33333V22.9167C3.33333 24.5275 4.63917 25.8334 6.25 25.8334C6.68333 25.831 7.11052 25.731 7.5 25.5409V26.6667C7.5 28.5076 8.9924 30 10.8333 30C12.6743 30 14.1667 28.5076 14.1667 26.6667V21.6667H15.8333V24.4525C15.8306 25.558 16.2702 26.6188 17.0542 27.3983L19.1667 29.5117V43.3334H20.8333V29.1667C20.8333 28.9456 20.7454 28.7338 20.5892 28.5775L18.2325 26.22C17.7649 25.7504 17.5017 25.1152 17.5 24.4525V19.1667H22.3808C22.6964 19.1624 22.9953 19.3073 23.1875 19.5575C23.1933 19.5659 23.2 19.5742 23.2058 19.5834C23.2416 19.6402 23.2696 19.7016 23.2892 19.7659C23.3049 19.8172 23.3155 19.8699 23.3208 19.9234C23.3267 19.9756 23.3267 20.0286 23.3208 20.0809C23.319 20.1089 23.3153 20.1367 23.31 20.1642C23.2911 20.252 23.2587 20.3363 23.2142 20.4142C23.0689 20.6722 22.7961 20.8322 22.5 20.8334H20C19.5398 20.8334 19.1667 21.2065 19.1667 21.6667V23.3334C19.1666 23.6922 19.3962 24.0107 19.7367 24.1242L21.57 24.7367C23.0583 25.2309 24.1667 27.4834 24.1667 29.1667H25.8333C25.8333 26.8742 24.4067 23.9234 22.1008 23.155L20.8333 22.7325V22.5H22.5C23.2014 22.4932 23.8672 22.1906 24.3333 21.6667H31.6667V24.7225C31.6656 25.2632 31.4903 25.7893 31.1667 26.2225L29.3333 28.6667C29.2251 28.811 29.1667 28.9864 29.1667 29.1667V43.3334H30.8333V29.4442L32.5 27.2225C33.0394 26.5005 33.3317 25.6238 33.3333 24.7225V21.6667H35.8333V26.6667C35.8333 28.5076 37.3257 30 39.1667 30C41.0076 30 42.5 28.5076 42.5 26.6667V25.5409C42.8895 25.731 43.3167 25.831 43.75 25.8334C45.3608 25.8334 46.6667 24.5275 46.6667 22.9167V21.6667H49.1667C49.6269 21.6667 50 21.2936 50 20.8334V15.8334C50 15.3731 49.6269 15 49.1667 15ZM3.33333 20H1.66667V16.6667H3.33333V20ZM7.5 22.9167C7.5 23.607 6.94031 24.1667 6.25 24.1667C5.55969 24.1667 5 23.607 5 22.9167V13.75C5 13.0597 5.55969 12.5 6.25 12.5C6.94031 12.5 7.5 13.0597 7.5 13.75V22.9167ZM12.5 26.6667C12.5 27.5872 11.7539 28.3334 10.8333 28.3334C9.91281 28.3334 9.16667 27.5872 9.16667 26.6667V10C9.16667 9.0795 9.91281 8.33335 10.8333 8.33335C11.7539 8.33335 12.5 9.0795 12.5 10V26.6667ZM16.6667 17.5C16.2065 17.5 15.8333 17.8731 15.8333 18.3334V20H14.1667V16.6667H17.5C17.5009 16.8242 17.5168 16.9814 17.5475 17.1359C17.5567 17.185 17.5725 17.23 17.5842 17.2775C17.6033 17.3517 17.6175 17.4284 17.6425 17.5H16.6667ZM20.8333 16.6667C20.8333 17.1269 20.4602 17.5 20 17.5C19.5398 17.5 19.1667 17.1269 19.1667 16.6667V14.1667C19.1667 13.7065 19.5398 13.3334 20 13.3334C20.4602 13.3334 20.8333 13.7065 20.8333 14.1667V16.6667ZM24.1667 16.6667C24.1667 17.1269 23.7935 17.5 23.3333 17.5C22.8731 17.5 22.5 17.1269 22.5 16.6667V14.1667C22.5 13.7065 22.8731 13.3334 23.3333 13.3334C23.7935 13.3334 24.1667 13.7065 24.1667 14.1667V16.6667ZM29.1667 14.1667C29.1667 13.7065 29.5398 13.3334 30 13.3334C30.4602 13.3334 30.8333 13.7065 30.8333 14.1667V16.6667C30.8333 17.1269 30.4602 17.5 30 17.5C29.5398 17.5 29.1667 17.1269 29.1667 16.6667V14.1667ZM25.8333 14.1667C25.8333 13.7065 26.2065 13.3334 26.6667 13.3334C27.1269 13.3334 27.5 13.7065 27.5 14.1667V16.6667C27.5 17.1269 27.1269 17.5 26.6667 17.5C26.2065 17.5 25.8333 17.1269 25.8333 16.6667V14.1667ZM35.8333 20H25C25 19.9917 25 19.985 25 19.9767C24.9993 19.811 24.982 19.6456 24.9483 19.4834C24.9433 19.4609 24.9325 19.44 24.9275 19.4167C24.9125 19.3559 24.8908 19.2992 24.8717 19.24C24.8365 19.1332 24.7939 19.0292 24.7442 18.9284C24.72 18.8784 24.7083 18.8217 24.6808 18.7734C24.6903 18.7669 24.6995 18.7599 24.7083 18.7525C24.7467 18.7275 24.78 18.6975 24.8167 18.6692C24.8792 18.6225 24.945 18.5792 25.0033 18.5267C25.0517 18.57 25.1075 18.6042 25.1592 18.6434C25.2108 18.6825 25.2617 18.7267 25.3175 18.7617C25.3961 18.8102 25.4774 18.8545 25.5608 18.8942C25.6175 18.9217 25.6708 18.9542 25.7275 18.9775C25.8248 19.0148 25.9245 19.0457 26.0258 19.07C26.0783 19.0842 26.1275 19.1042 26.1817 19.115C26.5022 19.1805 26.8327 19.1805 27.1533 19.115C27.2075 19.1042 27.2567 19.0842 27.3092 19.07C27.4105 19.0457 27.5102 19.0148 27.6075 18.9775C27.6667 18.9534 27.72 18.9209 27.7742 18.8942C27.8579 18.8545 27.9394 18.8102 28.0183 18.7617C28.0733 18.725 28.1233 18.6834 28.1758 18.6434C28.2283 18.6034 28.2833 18.57 28.3317 18.5267C28.38 18.57 28.4358 18.6042 28.4875 18.6434C28.5392 18.6825 28.59 18.7267 28.6458 18.7617C28.7245 18.8102 28.8057 18.8545 28.8892 18.8942C28.9458 18.9217 28.9992 18.9542 29.0558 18.9775C29.1531 19.0148 29.2528 19.0457 29.3542 19.07C29.4067 19.0842 29.4558 19.1042 29.51 19.115C30.8595 19.3893 32.1757 18.5177 32.45 17.1684C32.4835 17.0032 32.5003 16.8352 32.5 16.6667H35.8333V20ZM40.8333 26.6667C40.8333 27.5872 40.0872 28.3334 39.1667 28.3334C38.2461 28.3334 37.5 27.5872 37.5 26.6667V10C37.5 9.0795 38.2461 8.33335 39.1667 8.33335C40.0872 8.33335 40.8333 9.0795 40.8333 10V26.6667ZM45 22.9167C45 23.607 44.4403 24.1667 43.75 24.1667C43.0597 24.1667 42.5 23.607 42.5 22.9167V13.75C42.5 13.0597 43.0597 12.5 43.75 12.5C44.4403 12.5 45 13.0597 45 13.75V22.9167ZM48.3333 20H46.6667V16.6667H48.3333V20Z" fill="white"/>
</svg>
