<svg width="48" height="48" viewBox="0 0 48 48" fill="none" xmlns="http://www.w3.org/2000/svg">
<path d="M25.5 42H9C8.5875 42 8.25 42.3375 8.25 42.75C8.25 43.1625 8.5875 43.5 9 43.5H25.5C25.9125 43.5 26.25 43.1625 26.25 42.75C26.25 42.3375 25.9125 42 25.5 42Z" fill="white"/>
<path d="M38.25 9C38.6625 9 39 9.3375 39 9.75C39 10.1625 39.3375 10.5 39.75 10.5C40.1625 10.5 40.5 10.1625 40.5 9.75C40.5 8.50312 39.4969 7.5 38.25 7.5C37.8375 7.5 37.5 7.8375 37.5 8.25C37.5 8.6625 37.8375 9 38.25 9Z" fill="white"/>
<path d="M38.25 1.5C37.8375 1.5 37.5 1.8375 37.5 2.25C37.5 2.6625 37.8375 3 38.25 3C41.9719 3 45 6.02812 45 9.75C45 10.1625 45.3375 10.5 45.75 10.5C46.1625 10.5 46.5 10.1625 46.5 9.75C46.4906 5.19375 42.8062 1.50938 38.25 1.5Z" fill="white"/>
<path d="M38.25 6C40.3219 6 42 7.67812 42 9.75C42 10.1625 42.3375 10.5 42.75 10.5C43.1625 10.5 43.5 10.1625 43.5 9.75C43.5 6.85313 41.1469 4.5 38.25 4.5C37.8375 4.5 37.5 4.8375 37.5 5.25C37.5 5.6625 37.8375 6 38.25 6Z" fill="white"/>
<path d="M39 15.7501C39 15.3376 38.6625 15.0001 38.25 15.0001H36C35.5875 15.0001 35.25 15.3376 35.25 15.7501V17.1188L31.2375 13.6782C30.9563 13.4344 30.5438 13.4344 30.2625 13.6782L19.7625 22.6782C19.4438 22.9501 19.4156 23.4188 19.6781 23.7376C19.8188 23.9063 20.025 24.0001 20.25 24.0001H22.5V32.2501C22.5 32.6626 22.8375 33.0001 23.25 33.0001H38.25C38.6625 33.0001 39 32.6626 39 32.2501V24.0001H41.25C41.6625 24.0001 42 23.6626 42 23.2501C42 23.0344 41.9063 22.8188 41.7375 22.6782L39 20.3344V15.7501ZM36.75 16.5001H37.5V19.0501L36.75 18.4126V16.5001ZM29.25 31.5001V25.5001H32.25V31.5001H29.25ZM38.25 22.5001C37.8375 22.5001 37.5 22.8376 37.5 23.2501V31.5001H33.75V24.7501C33.75 24.3376 33.4125 24.0001 33 24.0001H28.5C28.0875 24.0001 27.75 24.3376 27.75 24.7501V31.5001H24V23.2501C24 22.8376 23.6625 22.5001 23.25 22.5001H22.275L30.75 15.2344L39.225 22.5001H38.25Z" fill="white"/>
<path d="M31.5 9.7875V5.25C31.5 3.17812 29.8219 1.5 27.75 1.5H6.75C4.67812 1.5 3 3.17812 3 5.25V42.75C3 44.8219 4.67812 46.5 6.75 46.5H27.75C29.8219 46.5 31.5 44.8219 31.5 42.75V38.2125C39.3469 37.8188 45.3937 31.1344 45 23.2875C44.625 15.9844 38.7938 10.1531 31.5 9.7875ZM9.75 3H24.75V5.25C24.75 5.6625 24.4125 6 24 6H10.5C10.0875 6 9.75 5.6625 9.75 5.25V3ZM27.75 45H6.75C5.50312 45 4.5 43.9969 4.5 42.75V5.25C4.5 4.00312 5.50312 3 6.75 3H8.25V5.25C8.25 6.49687 9.25313 7.5 10.5 7.5H24C25.2469 7.5 26.25 6.49687 26.25 5.25V3H27.75C28.9969 3 30 4.00312 30 5.25V9.7875C22.1531 10.1813 16.1062 16.8656 16.5 24.7125C16.8656 32.0063 22.6969 37.8375 30 38.2125V42.75C30 43.9969 28.9969 45 27.75 45ZM30.75 36.75C23.7094 36.75 18 31.0406 18 24C18 16.9594 23.7094 11.25 30.75 11.25C37.7906 11.25 43.5 16.9594 43.5 24C43.4906 31.0406 37.7906 36.7406 30.75 36.75Z" fill="white"/>
</svg>
