<svg width="26" height="27" viewBox="0 0 26 27" fill="none" xmlns="http://www.w3.org/2000/svg">
<g clip-path="url(#clip0)">
<path d="M6.89803 16.0212C7.01875 16.0047 7.18208 15.9578 7.37269 15.8399C7.48169 15.7718 7.63053 15.6058 7.60342 15.4802C7.5958 15.4456 7.58078 15.4103 7.55382 15.379C7.47077 15.2796 7.26253 15.3071 7.15641 15.38C7.0203 15.4725 6.84796 15.6167 6.74503 15.7975C6.68223 15.9095 6.77071 16.0383 6.89803 16.0212Z" fill="white"/>
<path d="M6.25707 15.4868C6.37827 15.4703 6.54139 15.4231 6.73158 15.3055C6.84121 15.2376 6.98942 15.0718 6.96278 14.9455C6.95506 14.9114 6.94004 14.8759 6.91207 14.8443C6.83003 14.7451 6.62157 14.7717 6.51577 14.8445C6.37955 14.9378 6.20673 15.0822 6.10439 15.263C6.04179 15.3758 6.12954 15.5036 6.25707 15.4868Z" fill="white"/>
<path d="M5.61587 14.8655C5.7376 14.849 5.89966 14.8018 6.09 14.6842C6.20001 14.6161 6.34822 14.4502 6.32121 14.3232C6.31338 14.2899 6.29809 14.2548 6.27113 14.2221C6.18898 14.1229 5.98037 14.1504 5.87473 14.2233C5.73909 14.3173 5.56532 14.4602 5.46335 14.6415C5.40007 14.7538 5.48845 14.8823 5.61587 14.8655Z" fill="white"/>
<path d="M5.03977 13.8885C5.15191 13.9377 5.31551 13.9802 5.54016 13.978C5.6686 13.9763 5.88154 13.9093 5.92309 13.7873C5.93417 13.7545 5.93886 13.7167 5.93167 13.6741C5.91238 13.5474 5.71921 13.4634 5.59125 13.4718C5.42627 13.4817 5.20353 13.5171 5.02352 13.619C4.9116 13.6826 4.9207 13.8377 5.03977 13.8885Z" fill="white"/>
<path d="M9.31097 13.7269C9.38342 13.6203 9.45192 13.4072 9.37628 13.304C9.35587 13.2752 9.32801 13.2501 9.28939 13.2317C9.17389 13.1746 8.99426 13.2839 8.92676 13.3946C8.84089 13.535 8.74132 13.7372 8.72118 13.9442C8.70946 14.072 8.84222 14.1539 8.95138 14.0852C9.05611 14.0216 9.18503 13.9119 9.31097 13.7269Z" fill="white"/>
<path d="M9.47223 14.7369C9.57654 14.6733 9.70642 14.5639 9.83252 14.3782C9.90438 14.272 9.97337 14.0601 9.89714 13.9555C9.87636 13.9272 9.84839 13.9025 9.80972 13.8836C9.69422 13.827 9.51469 13.9365 9.44757 14.0457C9.36116 14.1864 9.26186 14.3883 9.24247 14.5957C9.2299 14.7225 9.3627 14.8041 9.47223 14.7369Z" fill="white"/>
<path d="M10.3238 14.9701C10.4276 14.9064 10.5575 14.7973 10.6835 14.6123C10.7554 14.5057 10.8245 14.293 10.7487 14.1896C10.7279 14.1608 10.6995 14.1362 10.6613 14.1177C10.5455 14.0611 10.3658 14.1707 10.2987 14.2793C10.2128 14.4196 10.1135 14.6215 10.0931 14.8286C10.081 14.9561 10.2144 15.0387 10.3238 14.9701Z" fill="white"/>
<path d="M8.10066 13.4946C8.22201 13.4786 8.3846 13.4314 8.57532 13.3138C8.68485 13.2449 8.83316 13.0799 8.80668 12.9534C8.79885 12.9197 8.7833 12.8844 8.75634 12.8516C8.67441 12.7526 8.46579 12.7801 8.35951 12.8526C8.22436 12.9457 8.05106 13.0901 7.94915 13.2712C7.88533 13.3837 7.97424 13.5115 8.10066 13.4946Z" fill="white"/>
<path d="M7.93456 12.7788C8.04324 12.7113 8.1924 12.5448 8.16539 12.4192C8.1582 12.3849 8.14265 12.3502 8.11569 12.3178C8.03312 12.2187 7.82402 12.2459 7.71875 12.3191C7.58264 12.4124 7.40982 12.5562 7.30738 12.7372C7.24372 12.8492 7.33295 12.9788 7.46001 12.9609C7.58078 12.9445 7.74384 12.8971 7.93456 12.7788Z" fill="white"/>
<path d="M6.66694 12.1151C6.60365 12.2266 6.69203 12.356 6.81898 12.3386C6.94007 12.3222 7.10239 12.2754 7.29311 12.1571C7.40264 12.0896 7.55122 11.9234 7.52421 11.7979C7.51749 11.7636 7.5021 11.7278 7.47461 11.6956C7.39193 11.5967 7.18331 11.6246 7.07778 11.6972C6.94103 11.7903 6.76789 11.9345 6.66694 12.1151Z" fill="white"/>
<path d="M6.79325 10.9451C6.6288 10.9554 6.40676 10.9902 6.226 11.0924C6.11413 11.1562 6.12334 11.3117 6.24156 11.3629C6.35407 11.4111 6.51826 11.4535 6.74216 11.4507C6.87061 11.4488 7.08354 11.3832 7.12456 11.261C7.13612 11.2282 7.14086 11.19 7.13463 11.148C7.11433 11.0211 6.92217 10.9371 6.79325 10.9451Z" fill="white"/>
<path d="M9.02617 7.95288C8.86108 7.96306 8.63904 7.9979 8.45855 8.10034C8.34646 8.16384 8.35659 8.31998 8.47485 8.37059C8.58688 8.41886 8.75096 8.46185 8.97444 8.45897C9.10384 8.457 9.31629 8.39036 9.35785 8.26863C9.3684 8.23544 9.37378 8.19815 9.36744 8.15628C9.34714 8.02922 9.15445 7.94516 9.02617 7.95288Z" fill="white"/>
<path d="M9.22318 9.24385C9.33421 9.29207 9.49845 9.33522 9.72283 9.33175C9.85122 9.32973 10.0642 9.26362 10.1062 9.14194C10.1173 9.10875 10.122 9.07093 10.1158 9.0289C10.096 8.902 9.90332 8.81794 9.7744 8.82625C9.60968 8.83632 9.38716 8.8711 9.20667 8.97355C9.09517 9.03716 9.10439 9.19314 9.22318 9.24385Z" fill="white"/>
<path d="M10.9621 9.65776C10.974 9.62436 10.979 9.58728 10.9722 9.54477C10.9523 9.41787 10.7594 9.33381 10.6304 9.34212C10.4662 9.35219 10.2442 9.38697 10.0637 9.48968C9.95152 9.55345 9.96122 9.70885 10.0791 9.76004C10.1919 9.80879 10.3552 9.8513 10.5792 9.84843C10.7086 9.84651 10.9215 9.77997 10.9621 9.65776Z" fill="white"/>
<path d="M10.7855 10.7289C10.8979 10.7777 11.0615 10.8202 11.2856 10.8172C11.4144 10.8159 11.6278 10.7492 11.6687 10.627C11.6799 10.5941 11.6842 10.5565 11.678 10.5141C11.6586 10.3871 11.465 10.303 11.3371 10.3114C11.173 10.3214 10.9504 10.3556 10.7699 10.4585C10.6574 10.5222 10.6675 10.678 10.7855 10.7289Z" fill="white"/>
<path d="M12.402 15.5656C12.5918 15.6832 12.7556 15.731 12.8762 15.7469C13.0036 15.764 13.092 15.6357 13.0287 15.5231C12.9265 15.3431 12.754 15.1984 12.6178 15.1056C12.5112 15.0328 12.3037 15.0057 12.2206 15.1046C12.1935 15.1369 12.1781 15.172 12.1704 15.206C12.144 15.3324 12.2925 15.4987 12.402 15.5656Z" fill="white"/>
<path d="M13.6698 14.9895C13.5676 14.8085 13.3948 14.6647 13.2581 14.5708C13.1524 14.4989 12.9444 14.4711 12.8618 14.5698C12.8337 14.6033 12.8194 14.6374 12.8115 14.6722C12.784 14.7977 12.9337 14.9636 13.0427 15.032C13.2339 15.1495 13.3968 15.1966 13.5171 15.2142C13.6452 15.2293 13.7333 15.1013 13.6698 14.9895Z" fill="white"/>
<path d="M14.311 14.3671C14.2083 14.1862 14.0363 14.0421 13.8995 13.9507C13.7936 13.8778 13.5853 13.8497 13.5027 13.9487C13.4751 13.982 13.4599 14.0161 13.4527 14.0498C13.4251 14.1764 13.5738 14.342 13.6839 14.4106C13.8741 14.5272 14.0362 14.5757 14.1583 14.5918C14.2859 14.6081 14.3745 14.48 14.311 14.3671Z" fill="white"/>
<path d="M14.7514 13.3452C14.5708 13.2427 14.3483 13.2084 14.1837 13.1978C14.0542 13.1895 13.8625 13.2731 13.8429 13.4004C13.8354 13.4429 13.8409 13.4807 13.8524 13.5132C13.8939 13.6353 14.1065 13.7017 14.2355 13.703C14.4597 13.7055 14.6236 13.6634 14.7355 13.6147C14.8535 13.5647 14.8627 13.4088 14.7514 13.3452Z" fill="white"/>
<path d="M11.1218 15.257C11.2285 15.3298 11.44 15.3985 11.5448 15.3222C11.5732 15.3013 11.5984 15.274 11.6171 15.2357C11.6737 15.1203 11.565 14.9398 11.4545 14.8734C11.3139 14.7869 11.1118 14.6877 10.9051 14.668C10.7773 14.6558 10.695 14.7876 10.7632 14.8973C10.8274 15.0012 10.937 15.1315 11.1218 15.257Z" fill="white"/>
<path d="M11.9972 14.7018C12.0956 14.6198 12.0685 14.411 11.9956 14.3051C11.9025 14.1688 11.7587 13.9965 11.5776 13.8946C11.4651 13.8312 11.3372 13.9195 11.3546 14.0463C11.37 14.1673 11.4179 14.3307 11.5356 14.5204C11.6037 14.6298 11.7692 14.7784 11.8952 14.7521C11.9292 14.7443 11.9639 14.7292 11.9972 14.7018Z" fill="white"/>
<path d="M12.4298 14.1112C12.4635 14.104 12.4988 14.0879 12.531 14.0615C12.63 13.9784 12.6026 13.7706 12.5301 13.6647C12.4369 13.5279 12.2926 13.3553 12.112 13.2529C12 13.1895 11.8711 13.278 11.888 13.4059C11.9045 13.5269 11.9518 13.6886 12.0695 13.88C12.1376 13.9889 12.3037 14.1388 12.4298 14.1112Z" fill="white"/>
<path d="M12.5102 12.7644C12.5258 12.8855 12.574 13.0482 12.6914 13.2388C12.7595 13.3489 12.9256 13.4966 13.0515 13.47C13.0848 13.4628 13.1206 13.4474 13.1529 13.4198C13.2518 13.3375 13.2238 13.1294 13.1514 13.023C13.0583 12.8869 12.9144 12.7141 12.7344 12.6116C12.621 12.5486 12.4928 12.6373 12.5102 12.7644Z" fill="white"/>
<path d="M13.5878 13.0715C13.6216 13.0816 13.6588 13.0875 13.7004 13.0805C13.8277 13.0608 13.9117 12.8682 13.904 12.7394C13.8938 12.5752 13.859 12.3527 13.7565 12.1721C13.6926 12.0611 13.5367 12.0701 13.4858 12.1885C13.4365 12.301 13.3943 12.4647 13.397 12.6891C13.399 12.817 13.4662 13.0299 13.5878 13.0715Z" fill="white"/>
<path d="M8.29486 15.7558C8.39938 15.8321 8.61189 15.7637 8.71769 15.6914C8.90265 15.5651 9.01181 15.4355 9.07643 15.3319C9.14393 15.2215 9.06189 15.0889 8.93398 15.1014C8.72733 15.1203 8.52495 15.2203 8.38462 15.3066C8.27499 15.3735 8.16546 15.5529 8.22203 15.6688C8.24116 15.7068 8.26689 15.7354 8.29486 15.7558Z" fill="white"/>
<path d="M7.94474 15.1854C8.07014 15.2142 8.23624 15.065 8.30438 14.9541C8.42222 14.7639 8.4691 14.6013 8.48551 14.48C8.50229 14.3524 8.37497 14.2647 8.26187 14.3279C8.08085 14.4305 7.93738 14.6034 7.84378 14.7388C7.77091 14.8453 7.74384 15.0538 7.84288 15.1359C7.87516 15.1637 7.91043 15.1784 7.94474 15.1854Z" fill="white"/>
<path d="M7.77033 14.3143C7.88732 14.1228 7.93505 13.962 7.95146 13.8401C7.96888 13.7121 7.83996 13.6243 7.72809 13.6875C7.54712 13.7897 7.40312 13.9622 7.31053 14.099C7.23707 14.2044 7.20958 14.4137 7.30894 14.496C7.34138 14.5237 7.37617 14.5383 7.40989 14.546C7.53588 14.5721 7.70188 14.4239 7.77033 14.3143Z" fill="white"/>
<path d="M7.10613 13.046C6.92527 13.1482 6.78133 13.3217 6.6882 13.4572C6.61586 13.5634 6.58816 13.7708 6.68719 13.8542C6.71953 13.8811 6.75485 13.8963 6.78852 13.9037C6.91445 13.9311 7.08067 13.7827 7.14864 13.673C7.2659 13.4818 7.31384 13.3197 7.32913 13.1985C7.34655 13.0704 7.21864 12.9832 7.10613 13.046Z" fill="white"/>
<path d="M5.93549 13.1732C5.92777 13.3018 6.01119 13.4937 6.1391 13.5136C6.18113 13.5213 6.2189 13.5166 6.25172 13.5044C6.37382 13.4629 6.44041 13.2505 6.4418 13.1211C6.44489 12.8971 6.40238 12.7334 6.35352 12.621C6.30281 12.5033 6.14693 12.4931 6.08327 12.605C5.98083 12.7861 5.94615 13.0091 5.93549 13.1732Z" fill="white"/>
<path d="M8.10169 8.66205C7.99888 8.84269 7.96468 9.06521 7.95402 9.22929C7.94529 9.35773 8.02935 9.55106 8.15667 9.57066C8.19918 9.57689 8.23685 9.57204 8.26983 9.56107C8.39193 9.51957 8.45815 9.30664 8.4599 9.17772C8.46337 8.95371 8.42 8.78947 8.37179 8.6776C8.32081 8.56024 8.16541 8.55055 8.10169 8.66205Z" fill="white"/>
<path d="M9.93529 7.96878C9.97732 7.97576 10.0149 7.9708 10.0478 7.95972C10.1693 7.91822 10.2359 7.70529 10.2375 7.57685C10.2404 7.35294 10.1972 7.1887 10.1488 7.07672C10.0984 6.95851 9.942 6.94882 9.87824 7.06085C9.77643 7.24096 9.74127 7.46349 9.73158 7.62821C9.72433 7.75638 9.80786 7.94902 9.93529 7.96878Z" fill="white"/>
<path d="M10.6949 8.68895C10.8172 8.64719 10.8833 8.43447 10.8854 8.30555C10.8883 8.08153 10.8451 7.91729 10.7964 7.80542C10.7463 7.68694 10.5904 7.67735 10.5261 7.78938C10.4237 7.96993 10.3889 8.1924 10.3783 8.35664C10.3713 8.48508 10.4548 8.67862 10.5821 8.69801C10.6246 8.70472 10.6613 8.69987 10.6949 8.68895Z" fill="white"/>
<path d="M11.5027 9.43691C11.6243 9.39541 11.6911 9.1829 11.6921 9.05398C11.6949 8.83013 11.6524 8.66589 11.603 8.55338C11.553 8.4357 11.397 8.42595 11.3333 8.53761C11.2304 8.71858 11.1957 8.94062 11.1855 9.10486C11.1775 9.2333 11.2614 9.4262 11.3894 9.44623C11.4322 9.453 11.469 9.44809 11.5027 9.43691Z" fill="white"/>
<path d="M12.1917 10.1931C12.2338 10.1993 12.2713 10.195 12.3042 10.1838C12.426 10.1423 12.4926 9.92957 12.4944 9.80065C12.4973 9.57648 12.4548 9.4124 12.4065 9.30053C12.3553 9.18216 12.1994 9.173 12.1362 9.2845C12.0333 9.46546 11.9987 9.68766 11.9879 9.85174C11.9808 9.98066 12.0643 10.1733 12.1917 10.1931Z" fill="white"/>
<path d="M9.12852 9.93635C9.13135 9.71233 9.08836 9.54809 9.04014 9.43622C8.98906 9.31801 8.83318 9.30868 8.76936 9.42018C8.66708 9.60073 8.63234 9.82287 8.62217 9.98743C8.61396 10.1159 8.69749 10.3086 8.82476 10.3283C8.86727 10.3351 8.90494 10.3302 8.93791 10.3192C9.06039 10.2781 9.12613 10.0653 9.12852 9.93635Z" fill="white"/>
<path d="M9.64889 11.0471C9.77062 11.0056 9.83769 10.7926 9.83923 10.6638C9.84206 10.4404 9.79906 10.2762 9.75037 10.1636C9.7003 10.0454 9.54389 10.0363 9.4806 10.1478C9.37719 10.3279 9.34337 10.5509 9.3333 10.7146C9.32408 10.8435 9.40852 11.0366 9.53606 11.056C9.57851 11.0631 9.61618 11.0583 9.64889 11.0471Z" fill="white"/>
<path d="M10.6453 10.9212C10.5938 10.8027 10.4377 10.7936 10.3741 10.9052C10.2716 11.0857 10.2369 11.3087 10.2268 11.4724C10.2186 11.6009 10.302 11.7935 10.4301 11.8133C10.4724 11.8205 10.5102 11.8151 10.5425 11.8041C10.6646 11.763 10.7307 11.5502 10.7322 11.4208C10.7352 11.1972 10.6927 11.0336 10.6453 10.9212Z" fill="white"/>
<path d="M11.4395 11.9166C11.4424 11.6927 11.3995 11.5291 11.3502 11.4165C11.2999 11.2977 11.144 11.2887 11.0805 11.4007C10.9785 11.5807 10.9437 11.8032 10.9337 11.9675C10.9254 12.0964 11.0089 12.2894 11.1364 12.3091C11.1784 12.3155 11.2156 12.3102 11.2488 12.2995C11.3715 12.2584 11.4376 12.0455 11.4395 11.9166Z" fill="white"/>
<path d="M12.1178 11.9828C12.1603 11.9901 12.1979 11.9844 12.2314 11.9732C12.3525 11.9321 12.4186 11.7192 12.421 11.5908C12.4243 11.3668 12.3811 11.2028 12.3326 11.0907C12.2815 10.9719 12.1256 10.9622 12.0624 11.0741C11.9601 11.2548 11.9252 11.4774 11.9147 11.6411C11.9069 11.77 11.9908 11.9636 12.1178 11.9828Z" fill="white"/>
<path d="M12.8941 12.3093C12.9362 12.3157 12.9728 12.3105 13.0066 12.2997C13.1288 12.2577 13.1948 12.0448 13.1963 11.9163C13.1987 11.6924 13.1568 11.5289 13.108 11.4162C13.0579 11.2975 12.9018 11.2884 12.8376 11.4004C12.7354 11.5805 12.7006 11.803 12.69 11.9672C12.6826 12.0965 12.7662 12.2897 12.8941 12.3093Z" fill="white"/>
<path d="M13.0066 10.9317C13.1288 10.8907 13.1948 10.678 13.1963 10.5489C13.1986 10.3249 13.1567 10.1607 13.1079 10.0487C13.0578 9.93102 12.9018 9.92079 12.8375 10.0328C12.7353 10.2129 12.7005 10.4359 12.69 10.6002C12.6821 10.7291 12.7657 10.9222 12.8936 10.9416C12.9361 10.9482 12.9728 10.9433 13.0066 10.9317Z" fill="white"/>
<path d="M7.41217 9.65241C7.30989 9.8329 7.27569 10.0554 7.2645 10.2196C7.25677 10.3481 7.34084 10.5407 7.46773 10.561C7.51025 10.5672 7.54754 10.563 7.58025 10.5519C7.70293 10.5104 7.76856 10.298 7.77032 10.1685C7.77394 9.9444 7.7309 9.78027 7.68269 9.66791C7.63235 9.55007 7.47647 9.54107 7.41217 9.65241Z" fill="white"/>
<path d="M7.70059 10.9775C7.69174 11.1059 7.77581 11.2991 7.90324 11.3193C7.94527 11.3256 7.98278 11.3208 8.01575 11.3096C8.13796 11.2682 8.20408 11.0558 8.20594 10.9269C8.20882 10.7022 8.16593 10.5382 8.11719 10.4263C8.06684 10.3079 7.91091 10.2987 7.84714 10.4102C7.74496 10.5907 7.71066 10.8135 7.70059 10.9775Z" fill="white"/>
<path d="M8.7867 11.0907C8.73598 10.9719 8.58011 10.9622 8.51581 11.0741C8.41384 11.2548 8.3797 11.4774 8.36947 11.6411C8.36041 11.77 8.4448 11.963 8.57238 11.9822C8.61489 11.9896 8.65245 11.9838 8.68527 11.9726C8.80683 11.9316 8.87348 11.7187 8.87507 11.5902C8.87747 11.3668 8.83496 11.2028 8.7867 11.0907Z" fill="white"/>
<path d="M9.19175 12.4786C9.23379 12.4854 9.27193 12.4799 9.30464 12.4688C9.42685 12.4269 9.49248 12.214 9.49445 12.0856C9.49781 11.8611 9.45433 11.6971 9.40607 11.585C9.35589 11.4673 9.19996 11.4574 9.13534 11.5689C9.03337 11.7501 8.99906 11.972 8.98852 12.1368C8.98117 12.2647 9.0647 12.4579 9.19175 12.4786Z" fill="white"/>
<path d="M10.0922 12.7074C10.0955 12.4832 10.0526 12.3196 10.0038 12.2072C9.95208 12.0889 9.79668 12.0792 9.73345 12.1912C9.631 12.3712 9.59632 12.5935 9.58561 12.758C9.57757 12.8864 9.66158 13.0801 9.78901 13.0993C9.83104 13.1065 9.86807 13.1018 9.902 13.0903C10.0245 13.0487 10.0902 12.8357 10.0922 12.7074Z" fill="white"/>
<path d="M10.3741 12.8972C10.2716 13.0773 10.2369 13.3003 10.2268 13.4644C10.2186 13.594 10.302 13.7854 10.4301 13.8063C10.4724 13.812 10.5102 13.8075 10.5425 13.7961C10.6646 13.7546 10.7307 13.5418 10.7322 13.4128C10.7346 13.1887 10.6921 13.025 10.6443 12.9133C10.5933 12.7953 10.4377 12.7855 10.3741 12.8972Z" fill="white"/>
<path d="M11.4366 13.3631C11.4787 13.3698 11.5162 13.3648 11.5487 13.3532C11.6709 13.3121 11.7375 13.0993 11.7384 12.9703C11.7418 12.7459 11.6988 12.5822 11.6506 12.4697C11.5993 12.3519 11.4434 12.3423 11.3801 12.4538C11.2773 12.6344 11.2426 12.8574 11.2324 13.0212C11.2247 13.1495 11.3087 13.3427 11.4366 13.3631Z" fill="white"/>
<path d="M5.27066 13.1761C5.36687 13.2619 5.56904 13.3564 5.68203 13.2927C5.71299 13.277 5.74149 13.2519 5.76455 13.2165C5.83605 13.1083 5.74927 12.9169 5.64885 12.8362C5.51993 12.7338 5.33246 12.6097 5.12981 12.5634C5.0043 12.5354 4.90729 12.6576 4.96024 12.7744C5.00994 12.8863 5.10259 13.0279 5.27066 13.1761Z" fill="white"/>
<path d="M15.5286 19.5403C15.5281 19.5403 15.5281 19.5403 15.5276 19.5403C15.4455 19.5403 15.3682 19.5568 15.2949 19.5826C15.2215 19.5568 15.1445 19.5403 15.0622 19.5403H11.428C11.2054 19.3079 10.894 19.105 10.4654 19.0324C10.4368 18.3596 10.4928 16.9983 11.0146 16.4322C11.176 16.2572 11.3686 16.1712 11.6047 16.1712C11.6669 16.1712 11.722 16.146 11.7639 16.1068C11.8571 16.2169 11.9494 16.2898 12.0261 16.3378C12.1356 16.4058 12.2689 16.3235 12.2563 16.1953C12.237 15.9889 12.1376 15.7863 12.0516 15.6463C11.9841 15.5369 11.8045 15.4273 11.6887 15.4834C11.6506 15.5025 11.6226 15.5274 11.6023 15.5562C11.5732 15.5943 11.565 15.6492 11.5699 15.7084C11.2179 15.7176 10.9148 15.8521 10.6719 16.1161C9.94248 16.908 9.97828 18.6507 10.0037 19.136H9.68517C9.72518 18.8535 9.75416 18.2369 9.45434 17.4659C9.47607 17.4254 9.48966 17.3794 9.48342 17.3299C9.47559 17.2685 9.31151 15.8275 10.7038 15.3861C10.8265 15.3469 10.894 15.2156 10.8554 15.0943C10.8168 14.9699 10.6849 14.9028 10.5627 14.9421C9.56536 15.2571 9.16768 16.0269 9.04893 16.6813C8.85859 16.3869 8.61966 16.0828 8.31126 15.7735C8.23295 15.6954 8.11618 15.6887 8.02646 15.7445C7.91582 15.738 7.78109 15.8285 7.72563 15.92C7.63922 16.0607 7.53976 16.2626 7.52037 16.4687C7.50732 16.5975 7.64023 16.679 7.75072 16.6115C7.85391 16.5465 7.98395 16.4384 8.10936 16.2527C8.11069 16.2504 8.1133 16.2475 8.11458 16.245C9.31348 17.5267 9.27768 18.6867 9.2266 19.0577C9.05181 19.1209 8.75683 19.2608 8.47337 19.54H4.59436C4.38712 19.54 4.21878 19.371 4.21878 19.1634V9.69298C4.21878 9.29279 3.89435 8.96884 3.49454 8.96884H2.89261L9.50905 1.59305C9.56818 1.52694 9.63983 1.4921 9.71404 1.49109C9.71452 1.49109 9.71505 1.49109 9.71617 1.49109C9.78948 1.49109 9.86049 1.52539 9.91978 1.58969L12.1901 4.04952C12.393 4.26868 12.7103 4.34151 12.9859 4.2324C13.2634 4.12373 13.4463 3.85635 13.4463 3.55802V2.14826C13.4463 1.89761 13.6502 1.69352 13.9005 1.69352C14.1517 1.69352 14.3556 1.89713 14.3556 2.14826V6.11139C14.3556 6.29326 14.4239 6.46853 14.5472 6.60267L16.7304 8.96826H16.1608C15.7613 8.96826 15.4368 9.29221 15.4368 9.6925C15.4368 10.0927 15.7613 10.4166 16.1608 10.4166H17.2839C18.122 10.4166 18.4186 9.94773 18.5062 9.74593C18.5946 9.54467 18.7383 9.00922 18.1702 8.39243L15.8032 5.82846V2.14874C15.8032 1.09964 14.9498 0.245619 13.9002 0.245619C12.9867 0.245619 12.222 0.892032 12.0391 1.75132L10.9828 0.607235C10.6467 0.243222 10.197 0.0429688 9.715 0.0429688C9.71117 0.0429688 9.70696 0.0429688 9.7036 0.0429688C9.21727 0.0463249 8.766 0.252811 8.43086 0.625508L1.46601 8.3904C0.907977 9.0121 1.05666 9.54712 1.14637 9.7479C1.23614 9.94928 1.53548 10.417 2.37059 10.417H2.76901V19.1634C2.76901 20.1693 3.58712 20.9883 4.59281 20.9883H15.061C15.1434 20.9883 15.2207 20.9719 15.2938 20.946C15.3669 20.9714 15.4439 20.9883 15.525 20.9883C15.5986 20.9883 22.8787 21.0544 23.5003 25.1573C23.555 25.516 23.864 25.7729 24.2154 25.7729C24.2519 25.7729 24.2879 25.7702 24.325 25.7648C24.7206 25.7043 24.9928 25.3351 24.9329 24.9403C24.1257 19.6109 15.8792 19.5411 15.5286 19.5403Z" fill="white"/>
<path d="M4.40839 21.7787C4.27558 21.7871 4.17479 21.9022 4.18299 22.0348C4.19157 22.1678 4.30419 22.2735 4.43934 22.2603C4.54749 22.2535 15.2267 21.5919 18.1329 24.3154C18.5994 24.7523 18.8266 25.2386 18.8266 25.8015C18.8266 25.9348 18.9345 26.043 19.0678 26.043C19.201 26.043 19.3091 25.9348 19.3091 25.8015C19.3091 25.1074 19.0242 24.4887 18.4633 23.9631C15.405 21.0977 4.85594 21.7496 4.40839 21.7787Z" fill="white"/>
</g>
<defs>
<clipPath id="clip0">
<rect width="26" height="26" fill="white" transform="translate(0 0.0429688)"/>
</clipPath>
</defs>
</svg>
