<svg width="19" height="19" viewBox="0 0 19 19" fill="none" xmlns="http://www.w3.org/2000/svg">
<g clip-path="url(#clip0)">
<path d="M16.7671 5.59424V7.96476L18.2726 6.84641L16.7671 5.59424Z" fill="white"/>
<path d="M10.4153 0.332169C9.88477 -0.107524 9.11531 -0.112303 8.58481 0.32739L7.97784 0.843551H11.0318L10.4153 0.332169Z" fill="white"/>
<path d="M10.927 13.499C10.516 13.8048 10.019 13.9721 9.5076 13.9673C8.99622 13.9673 8.4944 13.8048 8.08338 13.499L0.469997 7.81641V17.5613C0.465218 18.3499 1.10086 18.9951 1.88944 18.9999H17.1114C17.9 18.9951 18.5357 18.3499 18.5309 17.5613V7.81641L10.927 13.499Z" fill="white"/>
<path d="M0.732727 6.84636L2.19041 7.93126V5.63721L0.732727 6.84636Z" fill="white"/>
<path d="M3.14557 1.79932V8.64323L8.64173 12.7343C9.15311 13.1071 9.85567 13.1071 10.3671 12.7343L15.8106 8.67669V1.79932H3.14557ZM6.53885 5.62273H9.11966C9.38252 5.62273 9.59759 5.8378 9.59759 6.10066C9.59759 6.36352 9.38252 6.57859 9.11966 6.57859H6.53885C6.27599 6.57859 6.06093 6.36352 6.06093 6.10066C6.06093 5.8378 6.27599 5.62273 6.53885 5.62273ZM12.4652 8.96822H6.53885C6.27599 8.96822 6.06093 8.75316 6.06093 8.4903C6.06093 8.22744 6.27599 8.01237 6.53885 8.01237H12.4652C12.728 8.01237 12.9431 8.22744 12.9431 8.4903C12.9431 8.75316 12.728 8.96822 12.4652 8.96822Z" fill="white"/>
</g>
<defs>
<clipPath id="clip0">
<rect width="19" height="19" fill="white"/>
</clipPath>
</defs>
</svg>
