<svg width="23" height="23" viewBox="0 0 23 23" fill="none" xmlns="http://www.w3.org/2000/svg">
<path d="M16.9196 6.79145C16.7922 6.59479 16.6377 6.46073 16.4939 6.37003C16.4931 6.12591 16.477 5.78067 16.419 5.38251C16.4582 4.90742 16.5953 2.29146 14.9948 1.112C14.0075 0.384487 12.9083 0 11.8158 0C10.928 0 10.0824 0.252326 9.43474 0.71047C8.85148 1.12316 8.53023 1.57204 8.36019 1.88803C7.85722 1.90581 6.81519 2.11089 6.35431 3.43955C5.91827 4.69634 6.27034 5.47279 6.5293 5.83265C6.51236 6.04079 6.50626 6.22377 6.50583 6.36993C6.36199 6.46063 6.20753 6.59468 6.0801 6.79135C5.79179 7.23634 5.74275 7.83306 5.93426 8.56531C6.29234 9.93448 7.12792 10.2358 7.57375 10.2963C7.84838 10.8454 8.45195 11.9675 9.05593 12.5313C9.29721 12.7565 9.61088 12.9465 9.98821 13.0963C10.4698 13.2874 10.9785 13.3843 11.4999 13.3843C12.0212 13.3843 12.5299 13.2874 13.0115 13.0963C13.3888 12.9465 13.7025 12.7565 13.9438 12.5313C14.5478 11.9675 15.1513 10.8454 15.426 10.2963C15.8717 10.2358 16.7073 9.93438 17.0655 8.56521C17.257 7.83317 17.2079 7.23634 16.9196 6.79145ZM16.0474 8.2991C15.8292 9.13373 15.4391 9.25832 15.2259 9.25832C15.2108 9.25832 15.1994 9.25747 15.1927 9.25695C14.9492 9.19539 14.724 9.32334 14.6175 9.55241C14.4092 10.0002 13.7528 11.2703 13.2258 11.7622C13.0809 11.8974 12.8782 12.0174 12.6233 12.1185C11.9082 12.4023 11.0914 12.4023 10.3764 12.1185C10.1215 12.0174 9.91876 11.8974 9.77387 11.7622C9.24691 11.2703 8.59053 10.0002 8.38218 9.55241C8.29358 9.36196 8.12323 9.24169 7.92825 9.24169C7.88868 9.24169 7.84807 9.24664 7.80692 9.25705C7.80019 9.25768 7.78883 9.25842 7.77378 9.25842C7.5607 9.25842 7.17064 9.13373 6.9523 8.29931C6.84486 7.88862 6.84581 7.56106 6.95482 7.37713C7.01827 7.27022 7.10835 7.23423 7.13781 7.22497C7.42012 7.19435 7.59016 6.94718 7.56659 6.66234C7.56607 6.6554 7.54765 6.41086 7.57101 6.03868C7.93309 5.88306 8.51161 5.57612 8.99932 5.04937C9.24754 4.78115 9.42916 4.45254 9.55848 4.15107C9.91108 4.43897 10.4103 4.77726 11.0708 5.06957C12.202 5.57023 14.4628 5.80835 15.4172 5.88968C15.4567 6.34394 15.4336 6.65392 15.433 6.66129C15.4082 6.94697 15.5785 7.19435 15.8618 7.22497C15.8913 7.23423 15.9813 7.27032 16.0448 7.37713C16.1539 7.56095 16.1548 7.88851 16.0474 8.2991ZM19.4213 15.3258L14.8215 13.486C14.6891 13.4332 14.541 13.4362 14.4108 13.4944C14.2807 13.5528 14.1798 13.6615 14.1314 13.7956L12.9751 16.9925L12.7461 16.3342L13.1104 15.4437C13.1767 15.2814 13.158 15.0968 13.0602 14.9511C12.9625 14.8056 12.7987 14.7183 12.6234 14.7183H10.3764C10.2011 14.7183 10.0372 14.8056 9.9396 14.9511C9.84184 15.0968 9.82312 15.2814 9.88941 15.4437L10.2537 16.3342L10.0247 16.9925L8.86842 13.7956C8.82002 13.6615 8.71911 13.5527 8.58905 13.4944C8.45879 13.4361 8.31063 13.4331 8.17836 13.486L3.57841 15.3258C2.16588 15.8908 1.25317 17.239 1.25317 18.7604V22.4739C1.25317 22.7645 1.48877 23 1.77929 23H21.2204C21.5109 23 21.7465 22.7645 21.7465 22.4739V18.7604C21.7465 17.239 20.8338 15.8909 19.4213 15.3258ZM19.2615 20.2785C19.2615 20.5691 19.0259 20.8046 18.7354 20.8046H15.203C14.9125 20.8046 14.6769 20.5691 14.6769 20.2785V18.6381C14.6769 18.3474 14.9125 18.1119 15.203 18.1119H18.7354C19.0259 18.1119 19.2615 18.3474 19.2615 18.6381V20.2785Z" fill="white"/>
</svg>
