<?xml version="1.0" encoding="utf-8"?>
<!-- Generator: Adobe Illustrator 22.0.1, SVG Export Plug-In . SVG Version: 6.00 Build 0)  -->
<svg version="1.1" id="Capa_1" xmlns="http://www.w3.org/2000/svg" xmlns:xlink="http://www.w3.org/1999/xlink" x="0px" y="0px"
	 viewBox="0 0 256.2 256.2" style="enable-background:new 0 0 256.2 256.2;" xml:space="preserve">
<g>
	<path d="M123.3,46.3c-2.5,0-4.6,2-4.6,4.6v7l-33.7,0V24.2h7c2.5,0,4.6-2,4.6-4.6c0-2.5-2-4.6-4.6-4.6H13.8c-2.5,0-4.6,2-4.6,4.6
		s2,4.6,4.6,4.6h7V90c0,17.7,14.4,32.1,32.1,32.1h65.8v7c0,2.5,2,4.6,4.6,4.6s4.6-2,4.6-4.6V50.9C127.9,48.4,125.8,46.3,123.3,46.3z
		"/>
	<path d="M242.3,156h-7V90.2c0-17.7-14.4-32.1-32.1-32.1h-65.8v-7c0-2.5-2-4.6-4.6-4.6s-4.6,2-4.6,4.6v78.2c0,2.5,2,4.6,4.6,4.6
		s4.6-2,4.6-4.6v-7h33.7V156h-7c-2.5,0-4.6,2-4.6,4.6s2,4.6,4.6,4.6h78.2c2.5,0,4.6-2,4.6-4.6S244.9,156,242.3,156z"/>
	<path d="M202.2,241.1c-12.7,0-23-10.3-23-23c0-8.9,12.9-31.5,23-46.9c10.1,15.5,23,38,23,46.9C225.2,230.8,214.9,241.1,202.2,241.1
		z"/>
</g>
</svg>
