<?xml version="1.0" encoding="utf-8"?>
<!-- Generator: Adobe Illustrator 22.0.1, SVG Export Plug-In . SVG Version: 6.00 Build 0)  -->
<svg version="1.1" id="Capa_1" xmlns="http://www.w3.org/2000/svg" xmlns:xlink="http://www.w3.org/1999/xlink" x="0px" y="0px"
	 viewBox="0 0 512 512" style="enable-background:new 0 0 512 512;" xml:space="preserve">
<style type="text/css">
	.st0{fill:#FFFFFF;}
</style>
<path d="M448,208h-40v40h38.6L376,358.9L305.4,248H344v-40H168v56h-64v-56H64v184c0.1,48.6,39.4,87.9,88,88h208
	c48.6-0.1,87.9-39.4,88-88V208z"/>
<path class="st0" d="M256,450c-14.3,0-26-11.7-26-26v-57.1c-0.1-1.9-1.2-3.7-3-4.6c-27.8-16.1-37.2-51.6-21.2-79.3
	c16-27.7,51.6-37.2,79.3-21.1c27.7,16,37.2,51.6,21.1,79.3c-5,8.7-12.3,16-21,21l-0.1,0.1c-1.8,0.9-3,2.8-3.1,4.8v57
	C282,438.3,270.3,450,256,450z M256.1,258c-18.7,0-36.8,9.7-46.8,26.9c-14.9,25.8-6.1,58.9,19.7,73.8c3,1.5,4.9,4.6,5.1,8.1l0,57.2
	c0,12.1,9.9,22,22,22s22-9.9,22-22l0-57.2c0.2-3.5,2.2-6.6,5.3-8.2c8.1-4.7,14.8-11.5,19.5-19.6c14.9-25.8,6.1-58.9-19.7-73.8
	C274.6,260.4,265.3,258,256.1,258z"/>
<path d="M120,248h32v-80c0-57.4,46.6-104,104-104s104,46.6,104,104v96h-25.4l41.4,65.1l41.4-65.1H392v-96c0-75.1-60.9-136-136-136
	S120,92.9,120,168V248z"/>
<path class="st0" d="M264.6,272.9c-2.8-0.6-5.7-0.9-8.5-0.9c-22.1,0-40,17.9-40,40c0,14.3,7.6,27.4,19.9,34.6
	c7.4,4.1,12,11.9,12.1,20.3V424c0,4.4,3.6,8,8,8s8-3.6,8-8v-57.1c0.1-8.5,4.7-16.3,12.2-20.4c14.9-8.8,22.5-26,19-42.9
	C291.9,288.3,280,276.2,264.6,272.9z M264,344h-16v-16h16V344z M264,320h-16v-16h16V320z M264,296h-16v-16h16V296z"/>
</svg>
