<svg width="26" height="30" viewBox="0 0 26 30" fill="none" xmlns="http://www.w3.org/2000/svg">
<path d="M12.7732 9.28467C9.62129 9.28467 7.05713 11.8488 7.05713 15.0005C7.05713 18.1525 9.62129 20.7166 12.7732 20.7166C15.9249 20.7166 18.4891 18.1525 18.4891 15.0005C18.4891 11.8488 15.9249 9.28467 12.7732 9.28467ZM16.1669 13.9241L12.0719 18.019C11.9 18.1909 11.6746 18.277 11.4494 18.277C11.2242 18.277 10.9989 18.1912 10.827 18.019L9.26218 16.4542C8.9184 16.1106 8.9184 15.5533 9.26218 15.2095C9.60573 14.8657 10.1631 14.8657 10.5068 15.2095L11.4494 16.152L14.9222 12.6794C15.2658 12.3357 15.8231 12.3357 16.1669 12.6794C16.5106 13.023 16.5106 13.5803 16.1669 13.9241Z" fill="black"/>
<path d="M25.5168 8.13977L25.5159 8.11642C25.5029 7.82826 25.4942 7.52339 25.4889 7.18419C25.4644 5.53006 24.1495 4.16181 22.4951 4.06934C19.0459 3.87685 16.3776 2.75213 14.0977 0.529918L14.0783 0.511378C13.3346 -0.170459 12.2129 -0.170459 11.469 0.511378L11.4496 0.529918C9.16966 2.75213 6.50137 3.87685 3.05212 4.06957C1.398 4.16181 0.0828444 5.53006 0.0583541 7.18442C0.0533187 7.52133 0.0443923 7.8262 0.0313461 8.11642L0.0299728 8.17067C-0.0370894 11.6879 -0.120402 16.0652 1.34398 20.0384C2.14919 22.2233 3.36867 24.1226 4.96832 25.6838C6.79021 27.4617 9.17653 28.8732 12.0609 29.8789C12.1547 29.9117 12.2522 29.9382 12.3516 29.9581C12.4916 29.986 12.6326 30 12.7736 30C12.9146 30 13.0558 29.986 13.1957 29.9581C13.295 29.9382 13.3932 29.9114 13.4875 29.8785C16.3684 28.8709 18.7522 27.4587 20.5725 25.681C22.1715 24.1194 23.391 22.2196 24.1969 20.0343C25.6667 16.0492 25.5837 11.6636 25.5168 8.13977ZM12.7732 22.4769C8.65056 22.4769 5.29676 19.1231 5.29676 15.0005C5.29676 10.8779 8.65056 7.52408 12.7732 7.52408C16.8956 7.52408 20.2496 10.8779 20.2496 15.0005C20.2496 19.1231 16.8956 22.4769 12.7732 22.4769Z" fill="black"/>
</svg>
