<svg width="48" height="48" viewBox="0 0 48 48" fill="none" xmlns="http://www.w3.org/2000/svg">
<g clip-path="url(#clip0)">
<path d="M45.6 29.2031C39.4969 29.2031 40.0781 29.2312 40.1156 29.1469C40.5937 28.0875 40.3594 26.8406 39.5344 26.025L34.0312 20.5125C32.4656 18.9562 29.9344 18.9562 28.3687 20.5125L24.4031 24.4781C23.775 25.1062 22.7625 25.1062 22.1437 24.4781L14.0625 16.3969C16.1719 15.1406 17.2219 12.6469 16.6312 10.2562C16.0406 7.86561 13.9594 6.14061 11.5031 6.00936C9.04686 5.87811 6.78748 7.36874 5.94373 9.67499C4.68748 8.95311 3.10311 9.14061 2.05311 10.1437C0.806231 11.3906 0.806231 13.4156 2.05311 14.6625L2.34373 14.9531C1.24686 15.2437 0.393731 16.1062 0.103106 17.2031C-0.18752 18.3 0.131231 19.4719 0.937481 20.2594L9.87186 29.1937H6.40311C4.63123 29.1937 3.20623 30.6281 3.20623 32.3906C3.20623 34.1625 4.64061 35.5875 6.40311 35.5875H8.00623V39.5906C8.00623 40.9125 9.08436 41.9906 10.4062 41.9906H11.2031C12.525 41.9906 13.6031 40.9125 13.6031 39.5906V35.5875H37.6219C36.375 37.2281 36.5906 39.5531 38.1094 40.9406C39.6281 42.3281 41.9625 42.3281 43.4906 40.9406C45.0187 39.5531 45.225 37.2281 43.9781 35.5875H45.6C46.9219 35.5875 48 34.5094 48 33.1875V31.5844C48 30.2719 46.9219 29.2031 45.6 29.2031ZM29.5031 21.6375C30.4406 20.7 31.9594 20.7 32.8969 21.6375L38.4094 27.15C38.7562 27.4969 38.8594 28.0219 38.6625 28.4719C38.4656 28.9219 38.025 29.2125 37.5281 29.2031C37.1906 29.1844 36.8812 29.0437 36.6469 28.8L31.7625 23.9062C31.6125 23.7562 31.4062 23.6719 31.1906 23.6719C30.75 23.6719 30.6937 23.8406 29.2219 25.3125L27.525 23.6156L29.5031 21.6375ZM31.2 25.5937L34.8 29.1937H27.6L31.2 25.5937ZM25.5375 25.6031L26.4094 24.7312L28.1062 26.4281L25.3406 29.1937H18.9562L17.9156 28.1531L21.1594 25.725C22.425 26.85 24.3375 26.7937 25.5375 25.6031ZM11.2031 7.60311C13.1719 7.60311 14.85 9.02811 15.15 10.9781C15.4594 12.9187 14.2969 14.8031 12.4219 15.4031C12.1875 15.3375 11.9437 15.2906 11.7 15.2719L7.28436 10.8656C7.64061 8.96249 9.28123 7.59374 11.2031 7.60311ZM3.17811 11.2687C3.81561 10.6594 4.81873 10.6594 5.44686 11.2687L5.79373 11.6156C5.85936 11.7 5.69061 11.5219 10.7719 16.5937C10.9312 16.7531 11.1469 16.8375 11.3719 16.8187C12.3937 16.8562 12.7125 17.3062 13.3781 17.9719L13.1437 18.1219C12.9 18.2812 12.7594 18.5531 12.7781 18.8437C12.7969 19.1344 12.9656 19.3875 13.2281 19.5187C13.4906 19.6406 13.8 19.6219 14.0344 19.4531L14.5312 19.125L17.7375 22.3312C17.5219 22.65 17.5594 23.0719 17.8312 23.3437C18.1031 23.6156 18.525 23.6531 18.8437 23.4375L19.9875 24.5812L16.7531 27C4.49998 14.7844 5.48436 15.7219 5.08123 15.4312C4.99686 15.375 5.49373 15.8437 3.17811 13.5281C2.55936 12.9094 2.55936 11.8969 3.17811 11.2687ZM4.79998 32.4C4.79998 31.5187 5.51248 30.7969 6.40311 30.7969H11.4844L14.6812 33.9937H6.40311C5.51248 34.0031 4.79998 33.2812 4.79998 32.4ZM12 39.6C12 40.0406 11.6437 40.3969 11.2031 40.3969H10.4062C9.96561 40.3969 9.60936 40.0406 9.60936 39.6V35.5969H12V39.6ZM43.2 37.9969C43.2 39.3187 42.1219 40.3969 40.8 40.3969C39.4781 40.3969 38.4 39.3187 38.4 37.9969C38.4 36.675 39.4781 35.5969 40.8 35.5969C42.1219 35.5969 43.2 36.675 43.2 37.9969ZM46.3969 33.1969C46.3969 33.6375 46.0406 33.9937 45.6 33.9937H16.9406L2.07186 19.125C1.44373 18.4969 1.44373 17.4844 2.07186 16.8656C2.70936 16.2656 3.69373 16.2656 4.33123 16.8656L18.0281 30.5625C18.1781 30.7125 18.3844 30.7969 18.5906 30.7969H45.6C46.0406 30.7969 46.3969 31.1531 46.3969 31.5937V33.1969Z" fill="white"/>
<path d="M40.8 38.7937C41.2401 38.7937 41.5969 38.4369 41.5969 37.9968C41.5969 37.5567 41.2401 37.2 40.8 37.2C40.3599 37.2 40.0031 37.5567 40.0031 37.9968C40.0031 38.4369 40.3599 38.7937 40.8 38.7937Z" fill="white"/>
</g>
<defs>
<clipPath id="clip0">
<rect width="48" height="48" fill="white"/>
</clipPath>
</defs>
</svg>
