<svg width="30" height="30" viewBox="0 0 30 30" fill="none" xmlns="http://www.w3.org/2000/svg">
<path d="M29.2936 12.3804L27.8643 12.1066C27.533 10.6295 26.9545 9.2373 26.1399 7.95504L26.9175 6.78686C27.1501 6.4384 27.1038 5.97404 26.8076 5.67791L24.322 3.19225C24.0241 2.89529 23.559 2.84895 23.213 3.08238L22.0448 3.85998C20.7627 3.04553 19.3705 2.46703 17.8934 2.13568L17.6196 0.706348C17.5372 0.296133 17.1766 0 16.7578 0H13.2422C12.8234 0 12.4628 0.296133 12.3804 0.706406L12.1066 2.13574C10.6295 2.46703 9.2373 3.04553 7.95504 3.8601L6.78686 3.0825C6.43664 2.84988 5.97492 2.89541 5.67791 3.19236L3.19225 5.67791C2.89611 5.97404 2.84977 6.4384 3.08238 6.78686L3.85998 7.95504C3.04553 9.2373 2.46703 10.6295 2.13568 12.1066L0.706348 12.3804C0.296133 12.4628 0 12.8234 0 13.2422V16.7578C0 17.1766 0.296133 17.5372 0.706406 17.6196L2.13574 17.8934C2.46703 19.3705 3.04553 20.7627 3.8601 22.045L3.0825 23.2131C2.84988 23.5616 2.89623 24.026 3.19236 24.3221L5.67803 26.8078C5.97328 27.103 6.43852 27.1502 6.78697 26.9176L7.95516 26.14C9.23748 26.9545 10.6297 27.533 12.1068 27.8644L12.3806 29.2937C12.4628 29.7039 12.8234 30 13.2422 30H16.7578C17.1766 30 17.5372 29.7039 17.6196 29.2936L17.8934 27.8643C19.3705 27.533 20.7627 26.9545 22.045 26.1399L23.2131 26.9175C23.5616 27.1509 24.0243 27.1046 24.3221 26.8076L26.8078 24.322C27.1039 24.0258 27.1502 23.5615 26.9176 23.213L26.14 22.0448C26.9545 20.7625 27.533 19.3703 27.8644 17.8932L29.2937 17.6194C29.7039 17.5372 30 17.1766 30 16.7578V13.2422C30 12.8234 29.7039 12.4628 29.2936 12.3804ZM15 24.668C9.66908 24.668 5.33203 20.3309 5.33203 15C5.33203 9.66908 9.66908 5.33203 15 5.33203C20.3309 5.33203 24.668 9.66908 24.668 15C24.668 20.3309 20.3309 24.668 15 24.668Z" fill="black"/>
<path d="M18.1667 9.02626C17.9006 8.82587 17.5439 8.79353 17.2459 8.94236C16.9478 9.09118 16.7595 9.39564 16.7595 9.72868V13.2406L20.275 13.2423C20.275 13.2411 20.2752 13.2401 20.2752 13.2389C20.2751 11.5175 19.4453 9.98919 18.1667 9.02626Z" fill="black"/>
<path d="M13.2421 9.72868C13.2421 9.39546 13.0561 9.09077 12.7579 8.94183C12.4597 8.793 12.1028 8.82575 11.8367 9.02626C10.5581 9.98919 9.72827 11.5175 9.72827 13.2389C9.72827 13.2401 9.72851 13.2411 9.72851 13.2423L13.2421 13.2406V9.72868Z" fill="black"/>
<path d="M13.2422 18.1992V22.6992C13.8047 22.8398 14.4023 22.9102 15 22.9102C15.5977 22.9102 16.1953 22.8398 16.7578 22.6992V18.1992C18.2519 17.6543 19.4297 16.4941 19.957 15H10.043C10.5703 16.4941 11.7481 17.6543 13.2422 18.1992Z" fill="black"/>
</svg>
