<svg width="35" height="35" viewBox="0 0 35 35" fill="none" xmlns="http://www.w3.org/2000/svg">
<path d="M29.1895 0H5.85621C4.24603 0.0018692 2.94132 1.30657 2.93945 2.91676V30.9166C2.93945 31.8832 3.72292 32.6667 4.68956 32.6667V34.4165C4.68956 34.7388 4.95071 35 5.27275 35H29.7729C30.0949 35 30.3561 34.7388 30.3561 34.4165V32.6667C31.3225 32.6667 32.1062 31.8832 32.1062 30.9166V2.91676C32.1041 1.30657 30.7996 0.0018692 29.1895 0V0ZM5.85621 1.16665H29.1895C30.1558 1.16665 30.9396 1.95011 30.9396 2.91676V7.00016H4.1061V2.91676C4.1061 1.95011 4.88956 1.16665 5.85621 1.16665ZM29.1895 33.8333H5.85621V32.6667H29.1895V33.8333ZM30.3561 31.5H4.68956C4.36726 31.5 4.1061 31.2389 4.1061 30.9166V8.16654H30.9396V30.9166C30.9396 31.2389 30.6784 31.5 30.3561 31.5Z" fill="white"/>
<path d="M5.85616 5.83326H12.8561C13.1784 5.83326 13.4395 5.57211 13.4395 5.25007V2.91677C13.4395 2.59447 13.1784 2.33331 12.8561 2.33331H5.85616C5.53386 2.33331 5.27271 2.59447 5.27271 2.91677V5.25007C5.27271 5.57211 5.53386 5.83326 5.85616 5.83326ZM6.43935 3.49996H12.2729V4.66661H6.43935V3.49996Z" fill="white"/>
<path d="M16.356 5.83326C17.3227 5.83326 18.1061 5.0498 18.1061 4.08342C18.1061 3.11678 17.3227 2.33331 16.356 2.33331C15.3897 2.33331 14.6062 3.11678 14.6062 4.08342C14.6062 5.0498 15.3897 5.83326 16.356 5.83326ZM16.356 3.49996C16.6783 3.49996 16.9395 3.76112 16.9395 4.08342C16.9395 4.40546 16.6783 4.66661 16.356 4.66661C16.034 4.66661 15.7728 4.40546 15.7728 4.08342C15.7728 3.76112 16.034 3.49996 16.356 3.49996Z" fill="white"/>
<path d="M21.0225 5.83326C21.9892 5.83326 22.7727 5.0498 22.7727 4.08342C22.7727 3.11678 21.9892 2.33331 21.0225 2.33331C20.0562 2.33331 19.2727 3.11678 19.2727 4.08342C19.2727 5.0498 20.0562 5.83326 21.0225 5.83326ZM21.0225 3.49996C21.3448 3.49996 21.606 3.76112 21.606 4.08342C21.606 4.40546 21.3448 4.66661 21.0225 4.66661C20.7005 4.66661 20.4394 4.40546 20.4394 4.08342C20.4394 3.76112 20.7005 3.49996 21.0225 3.49996Z" fill="white"/>
<path d="M24.5228 4.66659H25.6894C26.0115 4.66659 26.2726 4.40543 26.2726 4.0834C26.2726 3.76109 26.0115 3.49994 25.6894 3.49994H24.5228C24.2005 3.49994 23.9393 3.76109 23.9393 4.0834C23.9393 4.40543 24.2005 4.66659 24.5228 4.66659Z" fill="white"/>
<path d="M28.0228 4.66659H29.1894C29.5117 4.66659 29.7729 4.40543 29.7729 4.0834C29.7729 3.76109 29.5117 3.49994 29.1894 3.49994H28.0228C27.7005 3.49994 27.4393 3.76109 27.4393 4.0834C27.4393 4.40543 27.7005 4.66659 28.0228 4.66659Z" fill="white"/>
<path d="M17.5228 10.5001C12.3683 10.5001 8.18958 14.6786 8.18958 19.8333C8.18958 24.988 12.3683 29.1668 17.5228 29.1668C22.6775 29.1668 26.8562 24.988 26.8562 19.8333C26.8501 14.6813 22.6751 10.5063 17.5228 10.5001ZM17.5228 28.0001C13.0126 28.0001 9.35622 24.3437 9.35622 19.8333C9.35622 15.3229 13.0126 11.6668 17.5228 11.6668C22.0331 11.6668 25.6896 15.3229 25.6896 19.8333C25.6848 24.3416 22.0313 27.9953 17.5228 28.0001Z" fill="white"/>
<path d="M17.5227 12.2499C13.3389 12.2459 9.94361 15.6343 9.93933 19.8181C9.93853 20.8095 10.1321 21.7917 10.5094 22.7087C10.5129 22.7204 10.5094 22.7324 10.514 22.7442C10.5188 22.7559 10.5297 22.7669 10.5356 22.7805C12.1602 26.6372 16.6038 28.4466 20.4605 26.822C22.6187 25.9127 24.235 24.0569 24.8395 21.7946C24.8427 21.785 24.8451 21.7751 24.847 21.7652C25.9304 17.7363 23.5423 13.592 19.5131 12.509C18.8642 12.3346 18.1948 12.2473 17.5227 12.2499ZM17.5227 13.4166C21.0581 13.4083 23.9311 16.2677 23.9394 19.8028C23.9405 20.2803 23.8884 20.7561 23.7837 21.2216C23.4796 21.3222 23.181 21.4392 22.8894 21.5716C22.1327 21.9644 21.2921 22.1685 20.4394 22.1666C19.7134 22.1861 18.9962 22.0042 18.3668 21.6416C17.5748 21.2007 16.6791 20.9794 15.7728 20.9999C14.2911 21.0603 12.8259 21.3353 11.4235 21.8165C10.3239 18.4519 12.1599 14.8332 15.5245 13.7338C16.1696 13.5229 16.8442 13.4158 17.5227 13.4166ZM17.5227 26.25C15.1712 26.2484 13.0086 24.9613 11.8854 22.8953C13.1399 22.4683 14.4489 22.2229 15.7728 22.1666C16.4989 22.1474 17.2161 22.3289 17.8453 22.6916C18.6375 23.1324 19.5331 23.3541 20.4394 23.3332C21.4192 23.3386 22.3866 23.1151 23.2646 22.6806C22.1834 24.8638 19.9591 26.2468 17.5227 26.25Z" fill="white"/>
</svg>
