<svg width="22" height="22" viewBox="0 0 22 22" style="stroke: none !important;" xmlns="http://www.w3.org/2000/svg">
<g clip-path="url(#clip0)">
<path d="M8.97964 18.6326C8.95153 18.5578 8.94185 18.4942 8.95138 18.4427C8.96086 18.3916 8.92818 18.3493 8.85324 18.3166C8.7783 18.284 8.7409 18.2581 8.7409 18.2396C8.7409 18.221 8.68719 18.2068 8.57952 18.1976C8.47189 18.1882 8.41818 18.1835 8.41818 18.1835H8.23586H8.08155H4.04073C3.42339 18.1835 2.89486 17.9638 2.45518 17.5239C2.0156 17.0843 1.79583 16.5559 1.79583 15.9387V6.06104C1.79583 5.4437 2.01555 4.91537 2.45518 4.47574C2.89486 4.03605 3.42339 3.81614 4.04073 3.81614H8.53047C8.6521 3.81614 8.74773 3.78597 8.81806 3.72503C8.88808 3.66424 8.93477 3.57298 8.95826 3.4514C8.98165 3.32982 8.99576 3.22004 9.00047 3.1218C9.00509 3.02366 9.00283 2.89962 8.9934 2.74998C8.98411 2.60039 8.97944 2.50687 8.97944 2.46928C8.97944 2.3477 8.93497 2.24268 8.84617 2.15364C8.75727 2.06498 8.6521 2.02051 8.53052 2.02051H4.04073C2.92774 2.02051 1.97594 2.41571 1.18547 3.20608C0.395207 3.99644 0 4.9481 0 6.06118V15.9386C0 17.0516 0.395207 18.0035 1.18547 18.7936C1.97594 19.5843 2.92774 19.9795 4.04073 19.9795H8.53067C8.6523 19.9795 8.74798 19.949 8.81825 19.8884C8.88828 19.8275 8.93497 19.7364 8.95846 19.6146C8.98185 19.4932 8.99595 19.3829 9.00067 19.285C9.00529 19.1868 9.00303 19.063 8.99359 18.9134C8.98421 18.7636 8.97964 18.6701 8.97964 18.6326Z"/>
<path d="M21.7334 10.3686L14.1008 2.73579C13.9232 2.55829 13.7127 2.46924 13.4695 2.46924C13.2262 2.46924 13.0157 2.55829 12.8379 2.73579C12.6602 2.91354 12.5714 3.12421 12.5714 3.36728V7.4081H6.2857C6.04235 7.4081 5.83197 7.49715 5.65422 7.67465C5.47647 7.8524 5.38766 8.06293 5.38766 8.30614V13.694C5.38766 13.9371 5.47647 14.1477 5.65422 14.3253C5.83216 14.5027 6.04249 14.592 6.2857 14.592H12.5714V18.6328C12.5714 18.8758 12.6602 19.0865 12.838 19.2641C13.0157 19.4419 13.2262 19.5309 13.4695 19.5309C13.7127 19.5309 13.9232 19.4419 14.1008 19.2641L21.7334 11.6316C21.9111 11.4537 22 11.2435 22 11.0002C22 10.7571 21.9111 10.5464 21.7334 10.3686Z"/>
</g>
<defs>
<clipPath id="clip0">
<rect width="22" height="22"/>
</clipPath>
</defs>
</svg>
