<svg width="46" height="46" viewBox="0 0 46 46" fill="none" xmlns="http://www.w3.org/2000/svg">
<path d="M10.4219 0H21.9219C23.9074 0 25.5156 1.6082 25.5156 3.59375V24.4375H37.0156C38.2016 24.4375 39.1719 25.4078 39.1719 26.5938V30.9062C39.1719 32.0922 38.2016 33.0625 37.0156 33.0625H25.5156V42.4062C25.5156 44.3918 23.9074 46 21.9219 46H10.4219C8.43633 46 6.82812 44.3918 6.82812 42.4062V39.5312V6.46875V3.59375C6.82812 1.6082 8.43633 0 10.4219 0ZM21.9219 1.4375H10.4219C9.23594 1.4375 8.26562 2.40781 8.26562 3.59375V3.61172C8.86758 3.15351 9.61328 2.875 10.4219 2.875H21.9219C22.7305 2.875 23.4762 3.15351 24.0781 3.61172V3.59375C24.0781 2.40781 23.1078 1.4375 21.9219 1.4375ZM37.7344 30.9062V26.5938C37.7344 26.1984 37.4109 25.875 37.0156 25.875H11.8594C11.4641 25.875 11.1406 26.1984 11.1406 26.5938V30.9062C11.1406 31.3016 11.4641 31.625 11.8594 31.625H37.0156C37.4109 31.625 37.7344 31.3016 37.7344 30.9062ZM18.7594 24.4375C17.9867 23.9793 17.1062 23.7188 16.1719 23.7188C15.2375 23.7188 14.357 23.9703 13.5934 24.4375H18.7594ZM13.5844 33.0625C14.357 33.5297 15.2465 33.7812 16.1719 33.7812C17.0973 33.7812 17.9867 33.5297 18.7594 33.0625H13.5844ZM8.26562 42.4062C8.26562 43.5922 9.23594 44.5625 10.4219 44.5625H21.9219C23.1078 44.5625 24.0781 43.5922 24.0781 42.4062V33.0625H20.9785C19.7477 34.4281 18.0227 35.2188 16.1719 35.2188C14.2852 35.2188 12.5152 34.4012 11.2844 32.9727C10.377 32.7211 9.69414 31.8945 9.69414 30.9062V26.5938C9.69414 25.6055 10.368 24.7699 11.2844 24.5273C12.5152 23.1078 14.2762 22.2902 16.1719 22.2902C18.0227 22.2902 19.7477 23.0719 20.9785 24.4465H24.0781V6.47773C24.0781 5.2918 23.1078 4.32148 21.9219 4.32148H10.4219C9.23594 4.32148 8.26562 5.2918 8.26562 6.47773V39.5312V42.4062Z" fill="white"/>
<path d="M14.2223 16.3515C14.7036 16.3515 15.0937 16.7417 15.0937 17.223C15.0937 17.7043 14.7036 18.0945 14.2223 18.0945C13.7409 18.0945 13.3508 17.7043 13.3508 17.223C13.3508 16.7417 13.7409 16.3515 14.2223 16.3515Z" fill="white"/>
<path d="M18.0766 16.3515C18.5579 16.3515 18.948 16.7417 18.948 17.223C18.948 17.7043 18.5579 18.0945 18.0766 18.0945C17.5953 18.0945 17.2051 17.7043 17.2051 17.223C17.2051 16.7417 17.5953 16.3515 18.0766 16.3515Z" fill="white"/>
<path d="M14.2223 12.9105C14.7036 12.9105 15.0937 13.3007 15.0937 13.782C15.0937 14.2633 14.7036 14.6534 14.2223 14.6534C13.7409 14.6534 13.3508 14.2633 13.3508 13.782C13.3508 13.3007 13.7409 12.9105 14.2223 12.9105Z" fill="white"/>
<path d="M18.0766 12.9105C18.5579 12.9105 18.948 13.3007 18.948 13.782C18.948 14.2633 18.5579 14.6534 18.0766 14.6534C17.5953 14.6534 17.2051 14.2633 17.2051 13.782C17.2051 13.3007 17.5953 12.9105 18.0766 12.9105Z" fill="white"/>
<path d="M14.2223 9.6042C14.7036 9.6042 15.0937 9.99438 15.0937 10.4757C15.0937 10.957 14.7036 11.3472 14.2223 11.3472C13.7409 11.3472 13.3508 10.957 13.3508 10.4757C13.3508 9.99438 13.7409 9.6042 14.2223 9.6042Z" fill="white"/>
<path d="M18.0766 9.6042C18.5579 9.6042 18.948 9.99438 18.948 10.4757C18.948 10.957 18.5579 11.3472 18.0766 11.3472C17.5953 11.3472 17.2051 10.957 17.2051 10.4757C17.2051 9.99438 17.5953 9.6042 18.0766 9.6042Z" fill="white"/>
</svg>
