<svg width="48" height="48" viewBox="0 0 48 48" fill="none" xmlns="http://www.w3.org/2000/svg">
<path d="M31.9687 9.44995H15.975C14.9344 9.44995 14.0812 8.4187 14.0812 7.15308V2.7937H33.8625V7.15308C33.8625 8.4187 33.0094 9.44995 31.9687 9.44995ZM15.5812 4.2937V7.15308C15.5812 7.64058 15.8437 7.94995 15.975 7.94995H31.9687C32.1 7.94995 32.3625 7.64058 32.3625 7.15308V4.2937H15.5812Z" fill="white"/>
<path d="M38.7375 2.7937H33.1125C32.7281 2.7937 32.4094 3.11245 32.4094 3.49683C32.4094 3.8812 32.7281 4.19995 33.1125 4.19995H38.0344V34.1531C38.0344 35.3156 37.0875 36.2625 35.925 36.2625H31.2375C30.8531 36.2625 30.5344 36.5812 30.5344 36.9656V41.6531C30.5344 42.8156 29.5875 43.7625 28.425 43.7625H9.90936V4.19995H14.8312C15.2156 4.19995 15.5344 3.8812 15.5344 3.49683C15.5344 3.11245 15.2156 2.7937 14.8312 2.7937H9.20624C8.82186 2.7937 8.50311 3.11245 8.50311 3.49683V44.4656C8.50311 44.85 8.82186 45.1687 9.20624 45.1687H38.7375C39.1219 45.1687 39.4406 44.85 39.4406 44.4656V3.49683C39.4406 3.11245 39.1219 2.7937 38.7375 2.7937ZM35.3906 37.6687L31.9406 41.1187V37.6687H35.3906ZM31.2844 43.7625L38.0344 37.0125V43.7625H31.2844Z" fill="white"/>
<path d="M31.6969 31.1156H27.5531C28.6125 30.6937 29.4188 30.0937 30.0281 29.3719C32.5406 28.9875 33.6656 26.9156 33.6656 25.0031C33.6656 23.6438 32.9063 22.5188 31.9313 22.3219C31.9313 22.3125 31.9313 22.3031 31.9313 22.2938C31.9313 22.125 31.8656 21.9562 31.725 21.8156C31.5938 21.6844 31.4156 21.6094 31.2469 21.6094H15.6375C15.4688 21.6094 15.3 21.675 15.1594 21.8156C15.0281 21.9469 14.9531 22.125 14.9531 22.2938C14.9813 25.95 15.6188 29.6344 19.3313 31.125H15.1594C14.6813 31.125 14.2781 31.5 14.2781 32.0062C14.2781 32.4094 14.55 32.7188 15.0281 32.8219L19.3406 33.1312C19.4438 33.1312 19.5469 33.1969 19.575 33.3C19.7438 33.6375 20.0813 33.8438 20.4563 33.8438H26.0906C26.4656 33.8438 26.8031 33.6375 26.9438 33.3C26.9813 33.1969 27.075 33.1312 27.1781 33.1312L31.8 32.8219H31.8375C32.3156 32.7188 32.5875 32.4187 32.5875 32.0062C32.5781 31.5187 32.2031 31.1156 31.6969 31.1156ZM31.9313 23.0344C32.5125 23.2406 32.9531 24.0563 32.9531 25.0031C32.9531 26.325 32.3438 27.9187 30.6469 28.5C30.675 28.4531 30.7031 28.4062 30.7313 28.35C31.6688 26.7187 31.8656 24.75 31.9313 23.0344ZM15.6375 22.2844H31.2563C31.2188 26.8687 30.2344 31.1156 23.4469 31.1156C16.6594 31.1156 15.6656 26.8687 15.6375 22.2844ZM31.7625 32.1375L27.2156 32.4469C26.8781 32.4844 26.5688 32.6812 26.4 32.9906C26.3344 33.0937 26.2313 33.1594 26.1281 33.1594H20.4563C20.3531 33.1594 20.25 33.0937 20.1844 32.9906C20.0156 32.6812 19.7063 32.4844 19.3688 32.4469L15.1219 32.1375C14.9531 32.1 14.9531 32.0344 14.9531 32.0062C14.9531 31.9031 15.0563 31.8 15.1594 31.8H31.7344C31.8375 31.8 31.9406 31.9031 31.9406 32.0062C31.9313 32.0344 31.9313 32.1 31.7625 32.1375Z" fill="white"/>
<path d="M23.2031 16.9594C22.6969 17.4657 22.425 17.9813 22.425 18.525C22.425 19.0688 22.6969 19.6125 23.2031 20.1563C23.2687 20.2219 23.3344 20.2594 23.4375 20.2594C23.5406 20.2594 23.6062 20.2219 23.6719 20.1563C23.8031 20.025 23.8031 19.8188 23.6719 19.6782C23.2969 19.275 23.0906 18.9 23.0906 18.525C23.0906 18.15 23.2969 17.775 23.6719 17.4375C24.1781 16.9594 24.45 16.4157 24.45 15.8719C24.45 15.3282 24.2156 14.7469 23.6719 14.2406C23.5406 14.1094 23.3344 14.1094 23.1937 14.2406C23.0625 14.3719 23.0625 14.5782 23.1937 14.7188C23.5687 15.1219 23.775 15.4969 23.775 15.8719C23.7844 16.2469 23.5781 16.6125 23.2031 16.9594Z" fill="white"/>
<path d="M26.1562 18.5156C26.1562 19.0594 26.4281 19.6031 26.9344 20.1469C27 20.2125 27.0656 20.25 27.1687 20.25C27.2344 20.25 27.3375 20.2125 27.375 20.1469C27.5063 20.0156 27.5063 19.8094 27.375 19.6687C27 19.2656 26.7937 18.8906 26.7937 18.5156C26.7937 18.1406 27 17.7656 27.375 17.4281C27.9188 16.95 28.1906 16.4062 28.1906 15.8625C28.1906 15.2812 27.9562 14.7375 27.4125 14.2312C27.2812 14.1 27.075 14.1 26.9344 14.2312C26.8031 14.3625 26.8031 14.5687 26.9344 14.7094C27.3094 15.1125 27.5156 15.4875 27.5156 15.8625C27.5156 16.2375 27.3094 16.575 26.9344 16.95C26.4281 17.4656 26.1562 17.9719 26.1562 18.5156Z" fill="white"/>
<path d="M19.0312 18.5156C19.0312 19.0594 19.3031 19.6031 19.8094 20.1469C19.875 20.2125 19.9406 20.25 20.0438 20.25C20.1094 20.25 20.2125 20.2125 20.25 20.1469C20.3812 20.0156 20.3812 19.8094 20.25 19.6687C19.875 19.2656 19.6688 18.8906 19.6688 18.5156C19.6688 18.1406 19.875 17.7656 20.25 17.4281C20.7937 16.95 21.0656 16.4062 21.0656 15.8625C21.0656 15.2812 20.8312 14.7375 20.2875 14.2312C20.1562 14.1 19.95 14.1 19.8094 14.2312C19.6688 14.3625 19.6781 14.5687 19.8094 14.7094C20.1844 15.1125 20.3906 15.4875 20.3906 15.8625C20.3906 16.2375 20.1844 16.575 19.8094 16.95C19.3031 17.4656 19.0312 17.9719 19.0312 18.5156Z" fill="white"/>
<path d="M21.4781 29.4187C19.0687 29.0156 17.8406 27.6562 17.3344 24.9375C17.2969 24.7687 17.1 24.6281 16.9312 24.6656C16.7625 24.7031 16.6219 24.9 16.6594 25.0687C17.2031 28.0875 18.6656 29.6156 21.3469 30.0937C21.3844 30.0937 21.3844 30.0937 21.4125 30.0937C21.5812 30.0937 21.7219 29.9906 21.75 29.8218C21.7781 29.625 21.6469 29.4562 21.4781 29.4187Z" fill="white"/>
</svg>
